<?xml version="1.0" encoding="UTF-8"?>
<svg id="Layer_2" data-name="Layer 2" xmlns="http://www.w3.org/2000/svg" viewBox="0 0 456.5 413.41">
  <defs>
    <style>
      .cls-1 {
        fill: #999;
      }

      .cls-1, .cls-2, .cls-3, .cls-4, .cls-5 {
        stroke-width: 0px;
      }

      .cls-2 {
        fill: #666;
      }

      .cls-6, .cls-7, .cls-8, .cls-9, .cls-10 {
        stroke: #000;
        stroke-miterlimit: 10;
      }

      .cls-6, .cls-9 {
        fill: none;
      }

      .cls-8, .cls-9 {
        stroke-width: 3px;
      }

      .cls-4 {
        fill: #333;
      }

      .cls-5, .cls-10 {
        fill: #fff;
      }
    </style>
  </defs>
  <g id="Colour_3" data-name="Colour 3">
    <g>
      <path class="cls-3" d="m265.19,343.83c-10.64-3.11-21.34-7.88-28.49-16.77-2.44-3.09-4.32-6.49-5.59-10.26,0,0,5.94.18,5.94.18-.24.58-.33.7-.47.98-5.33,11.58-18.06,18.19-30.47,18.68-5.15-.04-10.3-.78-15.25-2.08,0,0,3.29-2.45,3.29-2.45-.34,5.45-.87,11.13-.18,16.47,0,0-4.75.67-4.75.67-.29-2.76-.52-5.54-.28-8.3.21-3.52.6-7.06.84-10.55,0,0,2.35.64,2.35.64,4.77,1.3,9.81,1.98,14.76,1.9,4.11-.32,8.32-1.38,12.14-2.99.42-.29,1.12.02,1.53-.27,1.53-.78,3.04-1.79,4.43-2.79,3.53-2.74,6.48-6.28,8.28-10.38,0,0,1.14-2.56,1.14-2.56l.87,2.67c2.32,7.2,7.29,13.29,13.5,17.54,6.17,4.28,13.49,7.23,20.8,8.77,0,0-1.68,1.08-1.68,1.08l.21-.99,1.12,1.72s-4.06-.92-4.06-.92h0Zm.88-2.87c.72.19,4.44,1.14,5.19,1.33,0,0-.33,1.35-.33,1.35-.14.58-.46,1.84-.6,2.43-.79-.21-3.4-.88-4.24-1.1-2.84-.81-5.6-1.94-8.32-3.1-10.83-4.71-20.89-12.99-24.54-24.59,0,0,2.01.11,2.01.11-1.76,3.93-4.43,7.43-7.71,10.18-1.6,1.39-3.44,2.6-5.27,3.63-1.04.29-1.6,1.58-2.68,1.83-3.93,1.84-8.11,3.05-12.45,3.49-5.38.23-10.71-.35-15.97-1.46,0,0,2.55-1.9,2.55-1.9-.04,5.19-.16,10.36.28,15.49,0,0-4.75.67-4.75.67-1.1-6.94-.43-13.75-.3-20.65,5.58,1.35,11.39,2.25,17.12,2.03,9.39-.82,18.93-5.54,23.88-13.72.28-.5.96-1.86,1.23-2.23,0,0,5.94.18,5.94.18,3.96,13.17,16.27,21.93,28.96,26.01h0Z"/>
      <path class="cls-3" d="m233.75,310.34c.49.33,1.17.17,1.44-.29.02-.03.04-.09.07-.04.15.16.32.35.43.53,0,0,.04.45.04.45.05.17-.03-.41-.02-.39.46.69.72,1.39.85,2.13.14.73.07,1.53.09,2.32l-4.97-.29c.17-.19.33-.39.48-.6.08-.11.24-.37.31-.48.01-.06-.12-.18-.03-.21.93-.66,1.09-1.36,1.71-2.23,0,0,.07-.08.07-.08.03-.02.52.07.44.02l.05-.19c.12-.51.24-1.02.31-1.54l1.01,1.33c-.82-.07-1.54-.2-2.29-.45h0Zm-2.01-2.23c1.93.07,3.88.35,5.76.66-.17.65-.55,2.1-.72,2.77,0,0-.06.2-.06.2-.1.01.38.17.39.22.1,1.19-.26,2-.06,3.31.04.1-.14.1-.18.17l-.05.22c-.21.89-1.24,6.18-1.45,7.18,0,0-3.81-6.13-3.81-6.13-1.05-1.55-1.8-3.32-1.36-5.23,0,0-.03-.43-.03-.43.03-.17.05.44.06.41.05-.26.14-.55.24-.79.08-.89.49-2.09,1.26-2.54h0Z"/>
    </g>
    <g>
      <path class="cls-1" d="m409.74,299.22c-6.12-8.33-18.75-21.93-39.33-27.44-14.13-3.79-27.07-2.44-37.73.73.01-.01.02-.03.03-.04,2.58-3.77,4.65-9.13,5.5-16.76-6.94-.99-13.88-1.99-20.82-2.99,6.26-7.57,12.53-15.14,18.79-22.7-1.29-4-3.24-7.84-6.15-10.83-1.36-1.4-2.93-2.61-4.75-3.56,1.11-.6,2.85-1.75,4.21-3.77,2.46-3.65,1.96-7.64,1.79-9.36-.93-9.64-10.45-14.96-11.51-15.53-1.32-.59-12.44-5.36-22.21.59-1.73,1.05-8.48,5.15-9.13,12.75-.56,6.46,3.67,11.08,4.74,12.17.86.87,1.88,1.65,1.88,1.65.83.58,1.75,1.16,2.77,1.73,2.19,1.21,4.28,2.02,6.07,2.56-5.62,4.88-10.85,14.45-10.41,33.2,0,.05.01,25.53,20.12,29.33-5.78,3.45-9.39,6.51-10.17,7.19-9.24-7.39-30.11-22.01-60.68-26.67-36.37-5.54-64.61,6.35-75.1,11.41-1.59-2.73-3.34-5.33-5.24-7.78h.17c6.19.11,17.65-2.58,22.69-22.49-6.57-1.31-13.14-2.61-19.71-3.91,7.07-7.27,14.13-14.55,21.19-21.83-.73-4.13-2.14-8.21-4.62-11.56-.21-.29-.43-.57-.66-.84,1.81.01,5.73-.23,9.7-2.7,6.28-3.89,7.91-10.37,8.22-11.75,0,0,3.16-18.85-18.88-19.19,0,0-14.71-.49-19.62,8.23-2.06,3.67-1.52,7.74-1.46,8.35.67,5.98,4.71,9.52,5.67,10.32.01,0,.01.01.02.01-7.15.91-20.41,6.48-23.61,34.73,0,0-.99,7.19,1.04,14.89.02.09.05.17.07.26-10.59-6.23-22.75-9.54-35.23-9.18-21.68.62-37.04,12.09-45.03,19.87,1.68-19.28,6.99-39.1,15.62-58.31,3.76-8.36,8.15-16.6,13.14-24.64,53.34-7.62,121.27-11.63,198.77-2.11,37.02,4.55,70.64,11.5,100.45,19.4l6.36,29.07h.01l10.27,46.92c1.39,5.24,3.89,16.51,2.76,30.58Z"/>
      <path class="cls-3" d="m410.15,300.67c-.86-.34-2.23-1.22-2.85-2.14,0,0-.42-.52-.42-.52-1.68-2.07-3.47-4.05-5.36-5.93-17.69-18.02-44.03-24.95-68.16-17.3,0,0-6.49,1.95-6.49,1.95l4.14-5.9s.02-.03.02-.03l-.27.33c2.99-4.47,4.38-10.06,4.98-15.7,0,0,2.12,2.74,2.12,2.74-3.68-.48-22.33-3.08-25.46-3.48,0,0,2.97-3.64,2.97-3.64,0,0,18.64-22.83,18.64-22.83,0,0-.51,2.67-.51,2.67-1.67-5.19-4.68-10.21-9.55-12.7,0,0-4.84-2.48-4.84-2.48,0,0,4.8-2.6,4.8-2.6,6.96-3.73,5.21-13.69.54-18.64-1.39-1.72-4.72-4.16-5.9-4.76-8.84-3.88-19.73-2.4-25.32,5.95-3.61,5.26-1.1,12.57,3.83,16.02,0,0,.38.23.38.23l.76.47c3.29,2.25,8.29,3.51,12.1,4.7,0,0-4.32,3.75-4.32,3.75-7.96,7.05-9.43,19.5-9.32,29.79.16,8.94,2.84,18.84,10.24,24.18,3.84,2.99,10.74,3.59,15.36,4.67-6.26,3.73-13.44,7.83-18.74,12.81,0,0-2.07-1.65-2.07-1.65-20.59-16.49-46.4-26.38-72.78-27.46-21.41-.9-42.99,3.87-62.16,13.42-2.66-4.99-6.39-9.97-9.9-14.41,0,0,5.81.1,5.81.1,11.56.44,17.77-10.38,20.22-20.33,0,0,2.11,3.34,2.11,3.34-3.13-.66-21.66-4.34-24.5-4.94,0,0,3.41-3.5,3.41-3.5,0,0,21.25-21.76,21.25-21.76,0,0-.69,2.24-.69,2.24-.71-4.04-2.09-8.04-4.67-11.21,0,0-3.41-4.22-3.41-4.22,0,0,5.35.04,5.35.04,7.32.24,13.87-5.26,15.47-12.28,1.89-16.21-15.04-19.06-27.29-14.52-2.53.97-4.74,2.3-6.21,4.48-3.48,5.09-1.47,12.57,3.13,16.34,0,0-1.46-.53-1.46-.53.29,0,.75.09,1.1.29.35.2.52.39.52.39,0,0-.16-.19-.51-.38-.35-.2-.8-.29-1.09-.29,0,0,.27,4.6.27,4.6-9.57,1.11-15.9,9.68-18.76,18.45-2.91,9.11-4.68,19.22-2.1,28.71,0,0,1.16,4.55,1.16,4.55,0,0-4.11-2.41-4.11-2.41-25.58-15.3-56.98-10.51-78.05,10.22,0,0-3.37,3.24-3.37,3.24,1.24-16.41,4.62-32.67,10.22-48.15,2.54-6.99,5.35-13.9,8.71-20.53,3.84-6.36,7.08-13.05,11.08-19.32,0,0,.26-.43.26-.43,0,0,.5-.07.5-.07,49.86-7.12,100.42-9.42,150.7-6.54,50.55,2.82,100.82,10.87,149.75,23.85,0,0,.17.77.17.77l6.42,29.06s-1.31-1.06-1.31-1.06c0,0,1.08,0,1.09,0,0,0,.23,1.06.23,1.06,1.59,7.04,9.14,41.69,10.67,48.09,2.04,8.1,2.97,16.47,2.79,24.81,0,0-.1,2.58-.1,2.58-.01,1.22-.68,2.76-1.24,3.75h0Zm-.82-2.89c-.18-.35-.45-.62-.64-.77-.2-.15-.28-.23-.27-.41.27-5.62.07-11.28-.7-16.86-2.19-12.77-9.64-44.55-12.31-57.74,0,0,1.31,1.06,1.31,1.06,0,0-1.09,0-1.09,0,0,0-.23-1.06-.23-1.06,0,0-6.3-29.08-6.3-29.08,0,0,.93.97.93.97-24.26-6.44-48.85-11.67-73.63-15.65-24.74-3.96-49.83-6.69-74.84-8.12-50.13-2.95-100.55-.72-150.26,6.31,0,0,.76-.5.76-.5-3.79,6.28-7.72,12.56-10.29,19.45-3.1,6.64-5.95,13.4-8.35,20.32-3.62,10.36-6.34,21.04-8.01,31.88-.54,3.61-.97,7.24-1.29,10.88,0,0-2.94-1.39-2.94-1.39,15.84-15.89,39.45-24.03,61.61-19.17,7.34,1.49,14.4,4.26,20.87,8.01l-2.94,2.14c-3.71-13.15.28-34.6,9.69-44.88,3.74-4.09,8.9-6.99,14.45-7.72,0,0,.27,4.6.27,4.6-.29,0-.75-.09-1.1-.29-.35-.2-.52-.39-.52-.39,0,0,.16.19.51.38.35.2.8.29,1.09.29,0,0-1.46-.54-1.46-.54-10.09-8.45-8.89-24.4,4.25-29,9.99-3.51,24.85-3.4,31.22,6.5,2.48,3.93,3.25,8.59,2.77,13.13-.96,4.84-3.54,9.21-7.36,12.32-3.64,3.01-8.38,4.57-13.04,4.55,0,0,1.94-4.17,1.94-4.17,3.54,4.22,5.27,9.56,6.12,14.88,0,0-.92.95-.92.95,0,0-21.13,21.9-21.13,21.9,0,0-1.39-4.47-1.39-4.47,2.07.37,21.3,4.19,22.6,4.41,0,0-.77,2.77-.77,2.77-2.98,12.58-11.13,24.93-25.5,24.65,0,0,2.23-4.55,2.23-4.55,2,2.57,3.83,5.27,5.47,8.08l-3.7-1.13c16.59-8,34.85-12.59,53.27-13.18,30.77-1.15,61.74,9.25,85.74,28.53,0,0-4.08.09-4.08.09,1.7-1.46,3.39-2.74,5.2-4.01,1.77-1.24,3.58-2.41,5.43-3.52l1.04,5.86c-3.42-.68-6.85-1.98-9.77-4.07-9.97-7.14-13.2-20.1-12.96-31.75.2-11.48,2.46-24.24,11.52-32.24,0,0,1.17,5.45,1.17,5.45-2.15-.65-4.23-1.52-6.21-2.58-1.25-.71-2.5-1.51-3.7-2.31-1.95-1.5-3.7-3.45-4.96-5.54-6.33-9.99-1.37-21.3,8.54-26.45,7.46-4.22,16.67-3.66,24.35-.35,3.06,1.65,5.61,3.75,7.9,6.3,7.14,7.59,8.14,22.32-2.24,27.62,0,0-.04-5.08-.04-5.08,6.28,3.25,10.23,9.62,12.25,16.08,0,0,.48,1.49.48,1.49,0,0-.99,1.18-.99,1.18l-18.94,22.57-1.65-4.27c.76.09,22.94,3.46,23.21,3.49-.45,3.86-.97,7.77-2.18,11.53-1,3.12-2.35,6.29-4.4,9,0,0-.04.04-.04.04l-2.35-3.94c27.56-8.41,57.51,1.43,75.55,23.7.76.88,1.44,1.8,2.16,2.72.05.07.04.11-.01.18-.11.12-.37.48-.37.94h0Z"/>
    </g>
    <g>
      <path class="cls-5" d="m370.56,272.86c-14.13-3.79-27.07-2.44-37.73.73-7.11,10.37-18.07,8.6-18.07,8.6-.33-.05-.66-.1-.98-.16h-.03c-5.78,3.45-9.39,6.51-10.17,7.19-9.24-7.39-30.11-22.01-60.68-26.67-36.37-5.54-64.61,6.35-75.1,11.41-1.59-2.73-3.34-5.33-5.24-7.78-2.41-.06-3.98-.54-3.98-.54-9.63-2.8-13.94-10.05-15.81-16.94-10.59-6.23-22.75-9.54-35.23-9.18-21.68.62-37.04,12.09-45.03,19.87-2.44,28.01,2.78,54.9,16.58,77.16,26.58,42.89,78.07,57.46,105.97,65.35,34.92,9.88,63.78,8.47,71.84,7.94,25.26-1.66,43.81-7.65,48-9.04,14.37-4.77,26-10.68,33.44-14.47,5.32-2.71,11.83-6.04,19.97-11.28,7.1-4.58,15.79-10.18,24.27-18.59,4.13-4.1,14.74-14.65,21.26-30.6,3.54-8.65,5.29-17.02,5.98-24.61v-.02c.03-.31.05-.62.07-.93-6.12-8.33-18.75-21.93-39.33-27.44Zm-111.1,93.24c-2.49,3.03-7.34,8.92-15.92,12.04-10.17,3.7-19.27,1.19-24.13-.14-4.16-1.15-10.59-3-16.77-8.64-2.34-2.14-7.68-7.59-10.14-16.02-.41-1.42-.7-2.85-.88-4.39-.5-3.99-.34-8.71.04-15.9,6.94,1.7,12.58,1.75,15.15,1.7,1.8-.12,17.93-1.49,25.98-14.95.57-.95,1.06-1.91,1.48-2.85-.09-.29-.18-.57-.26-.85-.54-1.85-.86-3.57-1.04-5.07v-.04c-.03-.24-.05-.47-.07-.69,0,0-.02,0-.03-.01-10.37-1.97-19.97-9.48-24.79-20.65-.52-1.51-.99-3.28-1.19-5.17-.25-2.49-.03-5.18,1.2-7.67,5.61-11.39,27.26-8.78,31.32-8.26,20.68,2.64,26.33,10.04,27.39,15.87v.04c.77,4.3-.96,7.74-.96,7.74-.69,1.46-7.65,15.62-22.7,18.23-2.28.4-4.58.5-6.87.33-.37,1.84-.96,3.85-1.88,5.92-.04.09-.08.19-.12.28,2.81,8.74,10.6,20.09,31.52,26.52,0,0,1.27.39,3.52.86.12.03.25.05.38.08-1.23,5.55-4.02,14.16-10.23,21.69Z"/>
      <g>
        <path class="cls-3" d="m370.17,274.31c-12.08-3.16-24.93-2.67-36.83,1.02,0,0,.98-.71.98-.71-2.26,3.28-5.33,6.11-9.01,7.75-3.24,1.48-6.81,2.16-10.37,1.9-.63-.06-1.03-.14-1.54-.21l.38.04h-.03s1.05-.29,1.05-.29c-3.4,2.11-6.79,4.48-9.77,7.1,0,0-1.36,1.21-1.36,1.21,0,0-1.48-1.15-1.48-1.15-18.6-14.48-41.2-23.6-64.62-26.04-11.63-1.26-23.5-.77-35.01,1.26-12.52,2.16-24.69,6.24-36.03,11.94-1.91-3.4-4.09-6.91-6.48-9.97,0,0,2.43,1.23,2.43,1.23-11.22-.32-20.2-9.25-22.74-19.84,0,0,1.44,1.88,1.44,1.88-5.97-3.52-12.5-6.13-19.29-7.55-20.61-4.66-42.54,2.84-57.45,17.53,0,0,.83-1.75.83-1.75-3.8,41.27,9.18,78.8,42.18,104.84,15.53,12.43,33.72,21.16,52.46,27.74,21.21,7.28,43.01,13.55,65.44,15.58,4.02.17,7.45,1.07,11.19,1.2,6.21.22,12.54.25,18.74-.12,27.53-1.48,54.52-8.86,78.93-21.66,36.12-17.65,70.67-42.79,74.27-86.08,0,0,0,.12,0,.12v-.02s0-.04,0-.04c0,0,0-.09,0-.09l.06-.89s.26.89.26.89c-9.48-12.85-23.12-22.71-38.63-26.79h0Zm.78-2.9c16.11,4.34,30.26,14.66,40.03,28.09,0,0,.3.4.3.4l-.04.49s-.08.97-.08.97c0,0,0-.13,0-.13,0,0,0,.02,0,.02v.07c-3.5,38.66-30.48,63.03-62.59,80.83-13.32,7.23-26.87,13.99-41.22,18.95-21.56,7.27-44.41,10.59-67.13,10.14-2.21-.02-5.39-.3-7.58-.17-5.05.33-10.11-.54-15.14-1.02-10.05-1.17-20.02-3.1-29.82-5.65-29.29-7.68-58.73-17.71-83.05-36.36-12.29-9.31-22.59-21.1-30.16-34.54-12.66-22.44-16.89-48.94-14.73-74.35,0,0,.08-1.02.08-1.02,0,0,.74-.73.74-.73,16.07-16.14,40.05-24.46,62.56-19.53,7.88,1.58,15.42,4.64,22.31,8.75,1.52,6.42,5.24,12.51,11.53,15.06,2.3,1.08,4.65,1.4,7.18,1.36,2.35,2.96,4.51,6.06,6.4,9.32,0,0-4.13-1.26-4.13-1.26,11.1-5.34,22.93-9.08,35.05-11.2,9.05-1.63,18.4-2.07,27.58-1.72,27.63,1.17,54.61,11.79,75.91,29.32,0,0-2.84.06-2.84.06,3.49-2.91,7.18-5.32,11.08-7.58,0,0,.54,0,.54,0,6.73,1.36,13.77-1.76,17.59-7.41,0,0,.42-.55.42-.55,0,0,.56-.16.56-.16,12.51-3.66,26.06-3.96,38.63-.44h0Z"/>
        <path class="cls-3" d="m260.61,367.06c-5.35,7.12-13.23,12.81-22.17,14.51-6.7,1.39-13.68.5-20.17-1.23-6.67-1.54-13.26-4.57-18.3-9.35-5.99-5.57-10.42-13.18-11.48-21.4-.81-6.89-.07-13.79.18-20.54,0,0,3.75.91,3.75.91,4.51,1.09,9.16,1.67,13.8,1.68,5.78-.31,11.67-2.23,16.5-5.44,3.87-2.55,7.08-6.16,9.02-10.38,0,0-.12,1.95-.12,1.95-.77-2.35-1.34-5.76-1.4-7.23,0,0,2.67,2.45,2.67,2.45-.64.02-1.48-.33-1.92-.79l1.4.74c-11.99-2.41-21.97-11.37-26.54-22.52-4.94-13.42,3-22.43,16.31-23.94,12.28-1.82,42.82,1.41,45.4,16.41.66,2.17.73,4.79.09,7.41-1.7,5.59-5.67,10.29-9.92,14.2-5.81,5.14-13.74,7.99-21.51,7.35,0,0,1.14-.87,1.14-.87-.44,2.21-1.15,4.38-2.07,6.43,0,0,.04-.77.04-.77,2.31,7.27,7.41,13.35,13.66,17.64,6.63,4.56,14.37,7.65,22.27,9.14-1.68,8.52-5.07,16.79-10.61,23.66h0Zm-2.32-1.91c5-5.99,8.34-13.34,10.13-21.02l.97,1.54c-7.78-1.81-15.21-4.94-21.77-9.52-6.69-4.67-12.1-11.39-14.52-19.25.48-1.1.94-2.18,1.3-3.32.42-1.28.73-2.65.98-3.97,0,0,.95.07.95.07,11.09,1.02,21.39-5.84,26.96-15.12.92-1.52,1.83-3.03,2.23-4.77.45-1.75.47-3.57.19-5.32,0,0,0-.04,0-.04,0,0,.02.19.02.19-.19-1.17-.6-2.28-1.5-3.08-.97-1.64-2.23-3.05-3.78-4.23-7.93-5.66-18.45-6.88-27.98-7.42-9.63-.41-25.01,1.78-23.11,14.55.1,1.51.42,3.01.96,4.44,0,0-.07-.17-.07-.17,2.13,4.79,5.32,9.08,9.31,12.4,3.98,3.31,8.76,5.67,13.79,6.55l1.4.74c-.42-.46-1.24-.8-1.86-.77l2.67,2.45c.13,1.63.76,4.58,1.65,7.02-1.84,4.57-4.75,8.7-8.5,11.9-6.3,5.37-14.27,8.35-22.46,8.9-5.17.1-10.36-.5-15.38-1.74,0,0,3.93-2.92,3.93-2.92-.9,13.75-.95,22.96,9.3,33.41,5.68,5.81,13.73,8.66,21.53,10.42,12.66,2.97,24.66-1.68,32.63-11.9h0Z"/>
      </g>
    </g>
    <g>
      <path class="cls-1" d="m269.31,344.33c-1.33,5.54-4.15,13.6-10,20.69-2.49,3.03-7.34,8.92-15.92,12.04-10.17,3.7-19.27,1.19-24.13-.14-4.16-1.15-10.59-3-16.77-8.64-2.34-2.14-7.68-7.59-10.14-16.02-.31-1.08-.55-2.17-.73-3.31-.5-3.99-.34-8.71.04-15.9,6.94,1.7,12.58,1.75,15.15,1.7,1.8-.12,17.93-1.49,25.98-14.95.57-.95,1.06-1.91,1.48-2.85,2.81,8.74,10.6,20.09,31.52,26.52,0,0,1.27.39,3.52.86Z"/>
      <path class="cls-3" d="m270.57,343.53c.27.89.05,2.2-.15,3.15-.38,2-.89,3.96-1.53,5.89-4.3,13.05-14.38,25.46-28.29,28.6-5.55,1.21-11.31.16-16.66-1.18-7.91-1.9-15.91-4.34-22.15-9.81-7.33-6.22-12.89-15.52-12.87-25.31-.03-2.74.57-9.12.75-11.93,0,0,.18-2.43.18-2.43,4.59,1.31,9.34,2.26,14.12,2.43,3.93.28,7.86-.47,11.61-1.61.61-.26.93-.19,1.55-.12,6.97-2.58,13.09-7.86,16.11-14.72,0,0,1.18-2.65,1.18-2.65,3.78,14.6,15.93,23.26,29.75,27.58,2.07.7,4.43,1.24,6.4,2.11h0Zm-2.53,1.61c-1-.02-1.79-.05-2.69-.27-.41-.14-1.66-.58-2.1-.73-13-4.4-25.78-13.19-30.05-26.84,0,0,2.09.11,2.09.11-3.07,6.91-9.01,12.25-15.89,15.21-.81.32-1.5.58-2.08,1.26-4.22,1.75-8.85,2.81-13.46,2.64-4.26-.08-8.51-.62-12.68-1.54l2.46-1.83c-.11,5.85-.25,11.57.64,16.99.76,4.2,2.68,8.11,5.11,11.62,5.81,8.65,15.25,12.9,25.28,14.55,5.01.78,9.97-.03,14.47-1.27,7.1-1.71,13.07-5.95,17.78-11.53,4.71-5.24,8.06-11.57,10.45-18.18,0,0,.08-.22.08-.22,0,0,.04-.11.04-.11.05.06.24.2.54.13h0Z"/>
    </g>
    <path class="cls-8" d="m239.26,267.46c-4.06-.52-25.71-3.13-31.32,8.26-2.16,4.38-1.21,9.35-.01,12.84,4.82,11.18,14.44,18.69,24.82,20.66,1.12.22,2.24.37,3.37.45,2.29.17,4.59.07,6.87-.33,15.05-2.61,22.01-16.77,22.7-18.23,0,0,9.61-19.05-26.43-23.65Zm4.68,11.39c-.56,1.72-4.69,2.3-12.39,1.74,0,0-14.7-.65-12.95-5.18,0,0,2.06-5.47,13.36-3.58,1.64.22,3.01.55,4.04.84,1.46.42,2.88.83,4.52,1.79.88.51,1.56,1.03,2.03,1.42,1.17,1.21,1.63,2.2,1.39,2.97Z"/>
    <g>
      <path class="cls-2" d="m446.19,208.39c-.67,2.72-2.26,4.75-3.95,6.26-2.45-3.9-5.82-8.4-10.44-12.74-13.58-12.72-29.58-15.78-36.67-17.46-83.25-19.71-153.93-23.78-153.93-23.78,0,0-78.19-4.49-173.41,5.19-12,1.22-39.02,2.55-41.52,13.01-.58,2.42.26,4.92,1.61,7.17-12.31-5.14-25.35-10.75-25.01-17.09.33-6.12,12.22-11.15,32.09-15.83,11.83-2.78,22.94-5.1,33.25-7.02h.01c2.3-.43,4.56-.84,6.77-1.24,4.66-.82,9.14-1.57,13.42-2.24,7.51-1.18,14.43-2.13,20.71-2.91.24-.03.48-.06.72-.09,4.23-.51,8.15-.94,11.76-1.3.52-.06,1.04-.11,1.54-.16,4.01-.39,7.62-.69,10.8-.93,10.91-.81,16.84-.83,16.84-.83,8.2-.08,16.12-.09,23.76-.04,26.8.2,50.06,1.21,69.01,2.37,14.61.89,52.29,3.46,86.4,9.17,0,0,23.32,3.91,47.48,10.53,3.02.84,6.05,1.7,9.05,2.62.67.2,1.25.38,1.87.58,9.77,3.08,20.88,7.75,32.34,14.56h0c.7.41,1.39.83,2.09,1.27,2.62,1.6,6.2,3.95,10.21,7.44.81.7,4.29,3.77,8.12,8.48,3.55,4.41,4.28,6.38,4.58,7.34.35,1.11,1.35,4.23.49,7.67Z"/>
      <path class="cls-3" d="m447.64,208.75c-.76,3.38-3.14,6.1-5.73,8.24-4.92-8.2-11.57-15.37-19.65-20.46-3.77-2.4-7.79-4.4-11.98-6.01-4.19-1.6-8.52-2.82-12.96-3.82-17.85-4.14-35.76-7.86-53.79-11.04-33.77-5.91-67.85-10.46-102.06-12.81-57.1-2.31-114.44-.2-171.3,5.45-9.18.93-18.27,1.53-26.95,3.44-6.14,1.5-18.46,4.47-12.94,12.84,0,0,4.48,7.35,4.48,7.35l-7.97-3.31c-8.72-4-34.26-12.13-24.67-24.96,7.96-8.83,28.91-12.41,40.3-15.26,8.38-1.88,16.8-3.62,25.25-5.21,15.75-2.95,37.71-6.31,55.69-8.07,6.78-.61,15.84-1.39,22.52-1.62,33.69-.63,67.45.43,101.06,2.89,37.31,2.88,74.69,6.88,111.14,15.62,14.57,3.53,29.26,7.04,43.15,12.81,6.96,2.91,13.69,6.33,20.18,10.14,0,0-.72-.2-.72-.2,0,0,.39,0,.4,0,0,0,.33.19.33.19,6.33,3.68,12.37,8.11,17.36,13.51,5.05,5.39,10.88,12.25,8.87,20.27h0Zm-2.91-.72c1.64-6.99-3.7-12.69-8.08-17.56-2.41-2.61-5.01-4.97-7.82-7.14-2.79-2.18-5.78-4.09-8.84-5.93,0,0,.75.2.7.19,0,0-.39,0-.39,0-25.66-15.63-55.69-21.33-84.81-26.98-36.7-6.29-74.03-8.65-111.21-10.19-22.35-.83-44.7-1.27-67.07-1.01-14.57-.18-29.86,1.25-44.34,2.88-14.72,1.75-30.08,4.18-44.66,6.75-5.2,1.12-17.25,3.35-24.51,5.07-10.36,2.38-20.62,4.5-30.22,8.69-2.95,1.34-6.85,3.34-7.71,6.05-.11,1.18.63,2.18,1.6,3.14,1.23,1.23,2.87,2.36,4.58,3.4,5.38,3.2,11.19,5.57,17.02,8.05,0,0-3.49,4.04-3.49,4.04-3.48-5.46-2.81-11.95,2.78-15.75,4.24-2.96,8.97-4.22,13.8-5.33,9.27-1.99,18.55-2.52,27.6-3.4,18.29-1.78,36.63-3.07,54.98-4.02,41.29-1.91,82.73-2.67,124.01.07,32.04,2.73,63.92,7.2,95.56,12.96,18.07,3.3,36.05,7.15,53.9,11.4,4.5,1.05,9.01,2.34,13.38,4.04,13.17,5.03,24.69,14.34,32.05,26.39,0,0-2.3-.33-2.3-.33,1.71-1.51,2.99-3.37,3.51-5.49h0Z"/>
    </g>
    <g>
      <path class="cls-4" d="m442.24,214.65c-1.48,1.33-3.01,2.25-4.06,2.88-6.54,3.93-18.2,3.57-20.28,3.59-4.74.05-11.91.18-21.19.6h-.01l-6.36-29.07c-29.81-7.9-63.43-14.85-100.45-19.4-77.5-9.52-145.43-5.51-198.77,2.11-4.99,8.04-9.38,16.28-13.14,24.64-21.87-3.38-38.63-9.16-50.1-13.96-1.35-2.25-2.19-4.75-1.61-7.17,2.5-10.46,29.52-11.79,41.52-13.01,95.22-9.68,173.41-5.19,173.41-5.19,0,0,70.68,4.07,153.93,23.78,7.09,1.68,23.09,4.74,36.67,17.46,4.62,4.34,7.99,8.84,10.44,12.74Z"/>
      <path class="cls-3" d="m443.72,214.86c-.18.55-.6,1.08-1.08,1.43-6.15,5.32-14.66,6.31-22.43,6.44-6.63.07-16.74.54-23.52.72,0,0-1.38.05-1.38.05,0,0-.32-1.41-.32-1.41,0,0-6.5-29.04-6.5-29.04,0,0,1.35,1.42,1.35,1.42-24.28-6.3-48.87-11.38-73.64-15.22-24.72-3.85-49.77-6.51-74.75-7.85-50.05-2.78-100.34-.32-149.94,6.75,0,0,2-1.31,2-1.31-4.84,7.82-9.18,15.94-12.94,24.32l-.89,1.98c-18.45-2.71-36.62-7.52-53.8-14.8-13.85-23.41,30.37-23.98,43.74-25.62,59.45-5.64,119.41-8.19,179.04-4.02,36.58,3.43,72.98,9.04,109,16.2,3.32.64,10.18,2.03,13.49,2.76,8.99,1.85,17.93,4,26.86,6.06,4.49,1.03,9,2.3,13.35,3.98,12.58,4.79,23.75,13.39,31.18,24.67,0,0,.49.75.49.75.34.51.58,1.17.68,1.73h0Zm-2.97-.42c-.21.08-.27.25-.24.28l-.45-.69c-4.6-7.03-10.6-13.14-17.68-17.69-3.77-2.43-7.81-4.44-12-6.08-4.2-1.62-8.55-2.86-12.98-3.88-17.85-4.13-35.77-7.9-53.82-10.99-36.03-6.07-72.45-10.83-108.95-12.39-18.27-.5-36.58-.56-54.86-.33-36.58.56-73.16,2.32-109.56,5.92-9.19.9-18.27,1.46-26.94,3.34-6.11,1.49-18.32,4.31-12.91,12.62,0,0-1.36-1.18-1.36-1.18,15.81,6.64,32.47,11.17,49.42,13.82,0,0-3.03,1.65-3.03,1.65,4.06-9.01,8.78-17.72,14.04-26.08,0,0,1.3-.18,1.3-.18,74.94-10.63,151.5-9.9,226.21,2.23,25.27,4.17,50.31,9.63,75.01,16.34,0,0,.24,1.11.24,1.11,0,0,6.22,29.1,6.22,29.1,0,0-1.69-1.36-1.69-1.36,6.61-.13,16.89-.46,23.48-.49,7-.1,14.37-.67,20.01-5.11,0,0,.53-.42.53-.42,0,0,.25-.21.25-.21-.16.13-.28.44-.22.68h0Z"/>
    </g>
    <path class="cls-3" d="m79.49,201.75c-.36.68-.74,1.41-1.43,1.32-.15-.14.03-2.21-.32-1.58,0,0,.47-2.96.47-2.96.14.7.58-1.31.76-1.42.64.1.79.95.94,1.67,0,0-.41,2.97-.41,2.97h0Z"/>
    <g>
      <path class="cls-2" d="m379.29,112.64c-29.49-13.85-81.22-33.43-148.09-34.77-50.84-1.02-92.35,8.86-120.03,17.87.89-8.27,1.1-5.78,2.9-21,.6-5.05,1-8.81,1.83-12.33.53-2.32,1.26-4.54,2.35-6.97,0,0,2.38-5.29,6.61-10.43,17.2-20.86,46.96-31.83,46.96-31.83,56.77-18.53,107.88-6.98,116.59-4.91,12.06,2.86,71.45,19.9,85.04,50.22,3.07,6.85,4.55,14.3,5.26,24.04.58,8.12.63,17.83.58,30.11Z"/>
      <path class="cls-3" d="m380.09,113.91c-4.29-1.04-9.07-3.34-13.19-5.09-35.49-14.91-73.34-24.1-111.68-27.37-49.67-4.18-100.03,2.28-147.22,18.2.51-5.35,1.3-10.95,2.18-16.22,1.61-9.82,1.36-20.18,5.69-29.49,9.66-19.76,32.97-34.1,52.62-42.54,1.6-.75,4.2-1.51,5.91-2.01,1.24-.32,6.27-1.9,7.35-2.18,2.62-.62,7.7-1.86,10.38-2.5,27.82-5.77,56.77-6.23,84.79-1.56,8.01,1.29,16.02,3.27,23.73,5.7,15.49,4.88,30.59,11.03,44.64,19.26,26.25,15.94,35.04,29.45,35.55,60.38.26,5.86.07,12.25.04,18.12-.11,2.17.19,5.29-.8,7.28h0Zm-1.6-2.54c-.24-.37-.52-.57-.63-.73-.06-.08-.09-.17-.09-.27,0,0,0-.74,0-.74,0-1.78-.12-7.13-.14-9.01-.55-15.46-.14-32.16-8.55-45.62-15.41-23.24-55.16-37.28-81.43-44.1-30.88-6.94-63.33-6.83-94.3-.48-2.56.63-7.56,1.78-10.1,2.4-2.55.76-7.37,2.16-9.91,2.91-13.63,5.24-26.65,12.73-37.67,22.3-5.9,5.16-11.35,11.2-14.75,18.32-2.38,5.02-3.08,10.19-3.75,15.87-.71,5.93-1.44,12.09-2.49,17.99-.32,1.92-.56,3.84-.77,5.81l-3.58-2.9c21.97-7.13,44.63-12.15,67.54-14.99,64.44-8.1,130.82,1.77,190.28,27.77,0,0,3.94,1.76,3.94,1.76,0,0,1.97.88,1.97.88,1.7.76,2.81,1.68,4.43,2.83h0Z"/>
    </g>
    <g>
      <path class="cls-1" d="m450.95,113.37c-2.62,9.27-6.04,20.46-13.5,35.29-3.79,7.52-9.19,17.07-16.75,27.53h0c-11.46-6.81-22.57-11.48-32.34-14.56-.62-.2-1.2-.38-1.87-.58-3-.92-6.03-1.78-9.05-2.62.22-2.38.43-4.89.63-7.57h0c.66-8.67,1.15-18.78,1.2-30.05.01-2.84.03-5.57.03-8.17.05-12.28,0-21.99-.58-30.11,8.79-3.94,22.15-9.62,35.77-14.11,3.52-1.16,10.45-3.38,19.16-2.34,3.89.45,8.38,1.04,12.45,4.2,6.23,4.86,7.45,12.63,8.14,17.56.8,5.7.56,11.85-3.28,25.53Z"/>
      <path class="cls-3" d="m452.39,113.78c-6.07,23.12-16.69,44.99-30.7,64.35,0,0-1,0-1.01,0,0,0-.53,0-.53,0l-.46-.27c-6.65-3.93-13.58-7.39-20.73-10.3-7.67-3.2-15.68-5.36-23.66-7.67.76-8.64,1.37-17.35,1.7-26.17.43-17.4.79-34.95-.15-52.32,11.57-5.1,23.33-9.85,35.36-13.82,9.42-3.45,19.98-4.42,29.62-1.12,12.79,4.74,14.99,20.92,13.42,32.8-.62,4.28-1.66,8.47-2.8,12.63-.28.56.11,1.3-.06,1.89h0Zm-2.89-.81c.15-.58.86-1.02.91-1.63,0,0,.46-1.76.46-1.76,2.13-8.08,3.55-16.55,1.67-24.81-1.17-6.92-4.8-13.54-11.61-15.86-6.63-2.1-14.11-2.19-20.89-.55-13.93,4.01-27.35,9.9-40.6,15.81,0,0,1.05-1.75,1.05-1.75.86,11.45.7,22.86.73,34.3.11,14.04-.5,28.3-1.79,41.91,0,0-1.46-2.11-1.46-2.11,7.57,2.17,15.2,4.36,22.49,7.41,7.33,3,14.42,6.56,21.23,10.61,0,0-.99-.27-.99-.27.04,0-1.57.8-1.56.8,13.68-18.71,24.21-39.71,30.38-62.09h0Z"/>
    </g>
    <path class="cls-3" d="m377.36,150.65c7.66-24.04,33.52-47.82,55.89-58.61,0,0,1.5,2.6,1.5,2.6-15.91,12.15-32.32,24.14-45.04,39.76-4.23,5.18-7.95,10.74-10.97,16.74,0,0,.03-.08.02-.05,0,0-1.41-.43-1.41-.43h0Z"/>
    <path class="cls-10" d="m243.94,278.85c-.56,1.72-4.69,2.3-12.39,1.74,0,0-14.7-.65-12.95-5.18,0,0,2.06-5.47,13.36-3.58,1.64.22,3.01.55,4.04.84,1.46.42,2.88.83,4.52,1.79.88.51,1.56,1.03,2.03,1.42,1.17,1.21,1.63,2.2,1.39,2.97Z"/>
    <path class="cls-7" d="m165.56,238.7c6.57,1.3,13.14,2.6,19.71,3.91-5.04,19.91-16.5,22.6-22.69,22.49-5.49-7.28-12.33-13.29-20.03-17.74-2.03-7.7-1.04-14.89-1.04-14.89,3.2-28.25,16.46-33.82,23.61-34.73,2.77-.36,4.62-.01,4.62-.01.37.06.73.15,1.09.24h0c4.72,1.14,8.15,3.49,10.63,6.5.23.27.45.55.66.84,2.48,3.35,3.89,7.43,4.62,11.56-7.06,7.28-14.12,14.56-21.19,21.83Z"/>
    <path class="cls-7" d="m162.58,265.1h-.17c-2.41-.06-3.98-.54-3.98-.54-9.63-2.8-13.94-10.05-15.81-16.94-.02-.09-.05-.17-.07-.26,7.7,4.45,14.54,10.46,20.03,17.74Z"/>
    <g>
      <path class="cls-5" d="m199.39,190.02c-.31,1.38-1.94,7.86-8.22,11.75-3.97,2.47-7.89,2.71-9.7,2.7-2.48-3.01-5.91-5.36-10.63-6.5h0c-.36-.09-.72-.18-1.09-.24,0,0-1.85-.35-4.62.01-.01,0-.01-.01-.02-.01-.96-.8-5-4.34-5.67-10.32-.06-.61-.6-4.68,1.46-8.35,4.91-8.72,19.62-8.23,19.62-8.23,22.04.34,18.88,19.19,18.88,19.19Z"/>
      <path class="cls-3" d="m199.88,190.12c-1.79,8.62-9.84,15.25-18.69,14.96-2.64-3.29-6.41-5.5-10.51-6.43,0,0,.2.02.15.02-1.85-.44-3.73-.46-5.61-.19-.15.02-.3,0-.46-.09-.11-.06-.17-.13-.17-.13,0,0,.05.06.16.12-7.28-5.55-9.57-19.06.77-24.9,7.01-3.72,15.51-4.28,23.06-2.1,8.24,2.32,12.5,10.52,11.3,18.73h0Zm-.98-.19c1.25-11.47-6.23-18.25-17.37-18.37-7.64-.13-17.79,1.72-20.74,9.74-1.88,5.62.26,12.1,4.79,15.86,0,0-.47-.17-.47-.17.1,0,.25.03.36.09.11.06.17.13.17.13-.04-.07-.4-.25-.51-.21,1.34-.27,4.75-.12,5.8.27,4.26,1.02,8.26,3.37,11.01,6.81,0,0-.47-.22-.47-.22,8.26.31,15.71-5.96,17.43-13.94h0Z"/>
    </g>
    <path class="cls-3" d="m181.87,204.77c-6.48-2.29-13.47-4.71-19.89-7.42,0,0,3.03-.4,3.03-.4,4.47-.61,8.17.47,12.04,2.8,1.63,1.02,3.07,2.3,4.29,3.77.25.2.53.93.52,1.26h0Zm-.8-.59c-.14-.04-.3,0-.37.05-.09.04-.05.09-.14,0-4.19-4.17-9.66-6.42-15.33-5.69,0,0,.2-1.54.2-1.54,5.4,2.18,10.24,4.72,15.64,7.18h0Z"/>
    <g>
      <path class="cls-5" d="m329.49,211.86c-1.36,2.02-3.1,3.17-4.21,3.77-2.12-1.12-4.59-1.89-7.44-2.18h0c-.36-.03-.73-.07-1.1-.09,0,0-6.65-.32-12.84,5.06-1.79-.54-3.88-1.35-6.07-2.56-1.02-.57-1.94-1.15-2.77-1.73,0,0-1.02-.78-1.88-1.65-1.07-1.09-5.3-5.71-4.74-12.17.65-7.6,7.4-11.7,9.13-12.75,9.77-5.95,20.89-1.18,22.21-.59,1.06.57,10.58,5.89,11.51,15.53.17,1.72.67,5.71-1.79,9.36Z"/>
      <path class="cls-3" d="m329.9,212.14c-1.16,1.74-2.78,3.13-4.62,4.09-7.33-3.93-15.09-2.51-21.22,3.03-2.81-.81-5.54-1.89-8.02-3.49-4.99-2.77-8.51-8.28-8.66-14.06-.24-6.69,4.64-12.36,10.27-15.31,6.85-3.9,15.52-3.18,22.47-.08,4.43,2.57,8.23,6.28,10.36,10.98,1.9,4.7,2.33,10.47-.58,14.85h0Zm-.83-.56c2.65-4.03,2.15-9.55.36-13.82-2.03-4.37-5.84-7.84-10.02-10.13-6.37-2.63-14.57-3.17-20.8.48-10.45,5.56-12.61,17.29-3.26,25.13,2.64,1.91,5.61,3.49,8.75,4.46,0,0-.71.15-.71.15,6.36-5.37,14.77-6.66,22.13-2.69,0,0-.5,0-.5,0,1.61-.86,3.02-2.08,4.05-3.58h0Z"/>
    </g>
    <path class="cls-3" d="m325.77,215.72c-8.29,1.53-16.96,3.25-25.36,4.21,0,0,2.8-2.29,2.8-2.29,3.91-3.4,9.66-5.67,14.62-5.01,2.53.28,5.02,1.06,7.25,2.3.22.07.65.54.69.78h0Zm-.98-.18c-.09.04-.17.15-.17.24-.02.08.06.14,0,.1l-.44-.18c-2.36-.96-5.04-1.4-7.34-1.49-4.5.11-8.88,2.08-12.27,4.99,0,0-.82-1.81-.82-1.81,6.86-.95,14.1-1.21,21.03-1.85h0Z"/>
    <path class="cls-7" d="m338.21,255.71c-.85,7.63-2.92,12.99-5.5,16.76-2.09.62-4.1,1.32-6.01,2.08-.33.11-.65.24-.97.38-.47.19-.94.38-1.4.57-.32.14-.64.27-.96.42-.41.17-.82.35-1.22.54-.4.18-.79.36-1.18.55-.23.11-.45.21-.67.32-.16.08-.32.16-.48.24-.29.14-.57.28-.85.42-.55.29-1.09.57-1.62.85,0,0-.01-.01-.01,0-.79.43-1.55.85-2.28,1.27-.14.07-.28.15-.42.24-.1.05-.21.11-.31.17,0,0,0,.01-.01.01-.23.14-.46.28-.69.42h-.03c-20.11-3.8-20.12-29.28-20.12-29.33-.44-18.75,4.79-28.32,10.41-33.2,6.19-5.38,12.84-5.06,12.84-5.06.37.02.74.06,1.1.09h0c2.85.29,5.32,1.06,7.44,2.18,1.82.95,3.39,2.16,4.75,3.56,2.91,2.99,4.86,6.83,6.15,10.83-6.26,7.56-12.53,15.13-18.79,22.7,6.94,1,13.88,2,20.82,2.99Z"/>
    <path class="cls-7" d="m332.71,272.47s-.02.03-.03.04c-7.11,10.37-18.07,8.6-18.07,8.6-.33-.05-.66-.1-.98-.16.23-.14.46-.27.69-.42h.01c.11-.06.21-.12.31-.18.14-.09.28-.17.42-.24.73-.42,1.49-.84,2.28-1.27,0-.01.01,0,.01,0,.53-.28,1.07-.56,1.62-.85.28-.14.56-.28.85-.42.16-.08.32-.16.48-.24.22-.11.44-.21.67-.32.39-.19.78-.37,1.18-.55.4-.19.81-.37,1.22-.54.32-.15.64-.28.96-.42.46-.19.93-.38,1.4-.57.32-.13.64-.26.97-.38,1.91-.76,3.92-1.46,6.01-2.08Z"/>
    <g>
      <path class="cls-1" d="m115.9,62.41c-.83,3.52-1.23,7.28-1.83,12.33-1.8,15.22-2.01,12.73-2.9,21-.07.66-.15,1.4-.23,2.22-.6,6-1.16,13.12-1.51,21.21-.14,3.38-.24,6.93-.29,10.64v.02c-.01.33-.02.67-.02,1v8.88c-6.28.78-13.2,1.73-20.71,2.91-4.28.67-8.76,1.42-13.42,2.24-12-14.14-19.77-27.09-24.63-36.34-6.16-11.7-10.4-19.92-11.87-31.76-1.03-8.21-3.58-28.64,7.89-37.37,11.76-8.95,31.36-.32,42.48,4.57,12.14,5.35,21.05,12.54,27.04,18.45Z"/>
      <path class="cls-3" d="m117.25,61.19c.06.88.04,1.84-.2,2.7-1.55,9.09-2.1,18.52-3.74,27.59-1.95,15.71-2.49,32.37-2.32,48.23,0,0,0,1.62,0,1.62-6.83.92-20.51,2.98-27.18,4.1-.66.17-9.3,1.58-9.64,1.68-13.86-15.84-24.88-33.98-33.29-53.21-2.4-5.76-3.98-12.04-4.64-18.25-.75-6.23-1.15-12.47-.43-18.78,1.55-15.02,10.67-24.73,26.36-23.25,8.44.75,16.33,3.76,23.99,7.03,11.48,4.79,22.48,11.47,31.07,20.54h0Zm-2.97,1.81c-.29-.08-.71-.09-.87-.28,0,0-1.06-.99-1.06-.99-5.13-4.73-10.8-8.88-16.9-12.28-11.51-5.96-32.08-15.74-44.62-10.35-13,6.08-11.84,23.9-10.47,36.05,1.3,13.98,8.63,26.54,15.35,38.71,6.03,10.5,13.14,20.33,20.85,29.65,0,0-1.95-.71-1.95-.71,5.07-.78,12.09-2.01,17.1-2.65,0,0,17.16-2.31,17.16-2.31l-1.65,1.87c0-16.08.74-32.78,2.9-48.7,1.81-9.34,2.38-18.69,4.15-28.01h0Z"/>
    </g>
    <path class="cls-3" d="m74.11,146.06c-.16.09-.43.25-.59.35-.08.05-.02-.02-.04-.02,0-.07.07-.21.03-.25l2.94-2.57s.18,0,.24,0c0,.02.07-.03.01.04-.12.14-.32.4-.43.54,0,0-2.17,1.9-2.17,1.9h0Z"/>
    <path class="cls-3" d="m57.38,63.06c29.06,8.33,50.67,36.7,52.25,66.69,0,0-.99.13-.99.13-1.52-7.18-3.7-14.15-6.71-20.72-5.94-13.14-15.19-24.63-26.55-33.5-5.64-4.5-11.83-8.32-18.37-11.67,0,0,.36-.93.36-.93h0Z"/>
    <g>
      <path class="cls-4" d="m379.29,112.64c0,2.6-.02,5.33-.03,8.17-.05,11.27-.54,21.38-1.2,30.04h0c-.2,2.69-.41,5.2-.63,7.58-24.16-6.62-47.48-10.53-47.48-10.53-34.11-5.71-71.79-8.28-86.4-9.17-18.95-1.16-42.21-2.17-69.01-2.37-7.64-.05-15.56-.04-23.76.04,0,0-5.93.02-16.84.83-3.18.24-6.79.54-10.8.93-.5.05-1.02.1-1.54.16-3.61.36-7.53.79-11.76,1.3-.03-2.78-.22-6.1-.7-9.79v-.02c.05-3.71.15-7.26.29-10.64.35-8.09.91-15.21,1.51-21.21.08-.82.16-1.56.23-2.22,27.68-9.01,69.19-18.89,120.03-17.87,66.87,1.34,118.6,20.92,148.09,34.77Z"/>
      <path class="cls-3" d="m379.71,112.37c.5,15.81-.08,31.77-1.35,47.36-16.64-4.34-33.52-7.94-50.49-10.72-55.43-8.18-111.64-10.81-167.64-10.61-17.45-.26-35,1.42-52.34,3.42.04-3.99-.23-8.03-.71-11.99.14-5.07.3-12.2.65-17.18.37-6.12.9-12.24,1.58-18.34,0,0,1.17-.38,1.17-.38,43.83-14.12,90.41-19.9,136.34-16.63,45.94,3.19,91.31,15.07,132.79,35.07h0Zm-.84.54c-41.54-18.92-86.5-30.55-132.11-33.08-45.6-2.75-91.63,3.5-135,17.72,0,0,1.3-1.61,1.3-1.61-.59,5.63-1.04,11.28-1.37,16.94-.38,4.44-.42,13.21-.61,16.7.43,3.32.69,6.66.73,10.02l-2.21-1.94c13.98-1.58,28.07-3.14,42.19-3.3,8.26.01,17.1-.02,25.29.04,56.15.99,112.67,3.84,167.83,14.99,11.01,2.31,21.95,5,32.78,8.06,0,0-1.29.89-1.29.89,1.59-14.91,2.13-30.27,2.45-45.43h0Z"/>
    </g>
    <path class="cls-3" d="m155,298.85c3.79,12.08,12.98,22.89,24.89,27.53,3.86,1.79,8.11,2.29,12.09,3.61,0,0-.96,3.96-.96,3.96-4.43-.73-8.39-3.19-12.27-5.31-11.39-6.99-20.96-16.43-27.49-28.16,0,0,3.73-1.63,3.73-1.63h0Z"/>
    <path class="cls-3" d="m138.02,296.27c7.43,4.32,19.79,5.12,23.76-4.13,0,0,1.62.86,1.62.86-3.99,7.03-11.86,8.59-19.28,7.09-2.42-.41-4.69-1.03-7.04-1.84,0,0,.95-1.98.95-1.98h0Z"/>
    <path class="cls-3" d="m327.17,315.06c1.78,6.58,6.91,12.57,13.73,14.16,0,0-.26,1.3-.26,1.3-5.72-.9-10.73-4.57-13.82-9.41-1.05-1.64-1.93-3.27-2.62-5.23l2.97-.82h0Z"/>
    <path class="cls-3" d="m227.6,355.07c-1.69-12.4.58-25.4,6.12-36.61,0,0,.93.36.93.36-2.38,8.91-4.26,17.86-5.2,27.03-.33,3.04-.58,6.1-.85,9.19l-1,.03h0Z"/>
    <path class="cls-3" d="m142.87,247.19c2.6-.32,4.84.55,6.65,2.2.81.83,1.29,2.08,1.88,3.14,1.1,2.32,3.51,2.83,5.52,3.96.45.36.99.64,1.17,1.24.16.64,0,1.56.38,1.97.34.45.95.63,1.65.77.68.14,1.25.41,1.55.9.68.91,1.19,1.97,1.13,3.43,0,0-.79.61-.79.61-1.3-.25-2.22-.85-3.06-1.73-.93-.6-.34-2.59-1.22-3.29-.39-.39-1.31-.27-1.91-.43-.58-.17-.85-.67-1.19-1.11-1.11-1.91-1.95-4.27-4.43-4.83-1.14-.32-2.42-.42-3.4-.89-2.04-1.1-3.62-2.86-4.45-5.08,0,0,.51-.86.51-.86h0Z"/>
    <path class="cls-3" d="m313.36,280.52c.58-2.09,1.91-3.42,3.78-4.12.88-.26,1.97-.07,2.95-.04,2.22.22,3.13-1.58,4.58-2.78.39-.24.77-.56,1.27-.45.54.14,1.21.72,1.63.58.43-.09.73-.55,1.01-1.09.28-.54.62-.92,1.07-.98.86-.22,1.79-.25,2.89.37,0,0,.28.96.28.96-.55,1.19-1.27,1.72-2.06,2.06-.38.22-.86.12-1.4-.13-.54-.26-1.07-.44-1.46-.24-.4.15-.57.98-.84,1.44-.98,1.01-2.69.31-3.93.58-2.01.15-2.69,2.62-3.86,3.8-1.59,1.19-3.28,1.44-5.4.88,0,0-.52-.86-.52-.86h0Z"/>
  </g>
  <g id="Artwork_3" data-name="Artwork 3">
    <path class="cls-3" d="m91.94,176.62c-3.11,5.98-6.66,12.04-9.45,18.16-20.54,43.25-27.06,98.18-.27,140.11,15.09,23.56,39.2,39.52,64.79,50.01,65.64,26.3,128.69,31.55,192.52-3.12,42.88-21.64,75.9-53.98,67.2-105.7-5.11-24.05-12.98-59.4-17.44-83.2,0,0,.77.81.77.81-36.42-9.59-73.55-16.51-111-20.47-62.21-6.84-125.18-5.2-187.12,3.4h0Zm-1.64-2.51c62.49-9.13,126.25-10,189.02-3.24,37.56,4.04,74.79,11.05,111.3,20.74,0,0,.62.17.62.17,0,0,.15.64.15.64,5.86,23.38,13.58,59.14,18.98,83.01,5.55,29.07-3.6,59-24.59,79.91-7.39,7.92-16.29,14.3-25.4,20.03-5.96,3.93-12.24,7.54-18.58,10.81-15.82,8.34-32.33,15.8-49.81,19.94-43.04,10.78-85.5,5.9-127.18-7.98-34.05-10.8-68.3-28.78-87.76-59.95-31.52-50.45-18.12-116.86,13.25-164.08h0Z"/>
    <path class="cls-9" d="m207.92,288.57c-1.19-3.5-2.15-8.46.01-12.84,5.61-11.39,27.26-8.78,31.32-8.26,36.04,4.6,26.43,23.65,26.43,23.65-.69,1.46-7.65,15.62-22.7,18.23-13.85,2.41-28.67-5.96-35.06-20.78Z"/>
    <path class="cls-3" d="m396.7,220.22s28.37-1.07,28.37-1.07c4.57-.45,9.18-1.23,12.79-3.58,9.26-5.43,8.15-13.79,1.5-21.12-5.88-7.24-13.34-12.85-21.47-17.31-12.15-7.01-25.45-12.22-39.02-15.77-64.11-17.49-131.1-20.59-197.23-21.99-8.02-.15-20.38.02-28.47,0-14.07.07-28.26,1.61-42.3,3.19-21.29,2.74-41.04,5.69-61.33,9.79-7.73,1.88-56.68,9.37-42.22,21.32,4.78,4.02,10.92,6.61,16.67,9.17,17.78,7.97,36.63,13.31,55.93,15.95,0,0-.44,2.97-.44,2.97-22.72-3.52-44.93-10.34-65.63-20.33-12.44-5.8-19.42-14.47-3.22-22.49,6.11-2.93,12.45-4.85,18.79-6.63,12.71-3.38,25.43-6.27,38.29-8.87,6.74-1.39,19.6-3.7,28.23-4.88,23.44-3.64,47.67-5.63,71.47-5.13,23.79-.02,47.69.79,71.43,2.17,47.59,2.83,95.39,7.87,141.33,21.12,18.53,5.13,36.76,12.89,52.01,24.73,3.82,3.08,7.24,6.64,10.32,10.42,5.29,6.01,8.64,14.6,3.21,21.79-8.47,10.54-22.71,8.95-34.74,9.29,0,0-14.28.28-14.28.28,0,0,0-3,0-3h0Z"/>
    <path class="cls-3" d="m26.59,186.82c-11.67-20.74,31.45-21.26,43.16-22.83,54.82-5.57,110-7.44,165.07-5.59,36.71,1.88,73.23,7.07,109.42,13.36,18.09,3.22,36.09,7,53.97,11.17,9.05,2.02,18.11,5.31,26.03,10.52,7.88,5.19,14.54,12.26,19.26,20.41,0,0-2.54,1.6-2.54,1.6-7.47-11.25-18.31-19.73-30.87-24.46-4.17-1.59-8.47-2.77-12.89-3.8-17.82-4.21-35.71-8-53.72-11.26-31.51-5.68-63.27-10.07-95.18-12.73-41.06-2.65-82.36-1.81-123.45.16-18.28.98-36.55,2.22-54.78,3.99-9.16.88-18.29,1.41-27.1,3.3-4.35.97-8.77,2.21-12.19,4.59-3.72,2.53-4.02,6.33-1.63,10.04,0,0-2.57,1.54-2.57,1.54h0Z"/>
    <path class="cls-3" d="m107.62,139.71c-.37-19.52.46-39.17,3.57-58.47,1.36-9.71,1.23-20.3,6.22-29.15,10.45-18.96,32.68-32.51,52.13-40.83.53-.23,1.29-.52,1.83-.68,6.46-2.03,13.08-3.92,19.66-5.39C210.24,1,230.14-.57,249.79.28c19.7.83,39.38,4.13,58.02,10.7,22.37,7.89,48.12,18.9,63.13,38.06,9.43,12.32,10.34,28.51,10.62,43.36.13,9.81-.02,19.53-.21,29.28-.23,12.38-1.09,24.86-2.42,36.88,0,0-2.99-.28-2.99-.28.8-11.97,1.37-24.37,1.23-36.63-.14-9.72-.06-19.48-.4-29.13-.53-13.89-1.48-28.84-10.19-40.21-14.56-18.19-39.11-28.15-60.64-35.83-18.12-6.46-37.2-9.72-56.41-10.6-16.75-.75-33.78.18-50.27,3.23-9.11,1.59-18.14,3.93-26.96,6.68-17.72,7.23-35.11,17.46-47.14,32.59-2.71,3.7-5.11,7.75-6.46,12.16-2.01,6.86-2.31,14.1-3.44,21.25-2.98,16.71-4.2,33.67-4.55,50.63,0,0-.08,7.29-.08,7.29,0,0-3,0-3,0h0Z"/>
    <path class="cls-3" d="m110.71,94.31c87.14-30.82,186.3-22.97,269.22,16.98,0,0-1.28,2.72-1.28,2.72-10.39-4.75-20.97-9.04-31.74-12.82-53.75-18.91-111.89-25.46-168.42-18.12-22.61,2.82-44.92,7.76-66.86,14.1l-.93-2.85h0Z"/>
    <path class="cls-3" d="m378.09,81.17c10.62-5.01,21.48-9.57,32.57-13.48,3.74-1.32,7.58-2.66,11.55-3.3,6.12-.99,12.26-.67,18.28.89,6.29,1.62,11.47,6.87,13.55,12.85,2.7,7.68,3.13,16.24,1.49,24.12-5.48,25.99-16.9,50.57-32.27,72.18,0,0-.86,1.19-.86,1.19-.28.4-.64.75-.5,1.45,0,0-2.43-1.76-2.43-1.76.71-.09.92-.53,1.2-.93l.83-1.19c12.7-18.33,22.21-38.77,27.75-60.39,1.86-7.29,3.88-14.89,3.29-22.38-1.08-12.12-5.18-21.32-18.59-22.29-11.51-1.67-22.38,3.32-33,7.08-7.27,2.71-14.47,5.65-21.63,8.69l-1.23-2.74h0Z"/>
    <path class="cls-3" d="m377.36,150.65c7.66-24.04,33.52-47.82,55.89-58.61,0,0,1.5,2.6,1.5,2.6-15.91,12.15-32.32,24.14-45.04,39.76-4.23,5.18-7.95,10.74-10.97,16.74,0,0,.03-.08.02-.05,0,0-1.41-.43-1.41-.43h0Z"/>
    <path class="cls-3" d="m409.17,300.17c-27.55-33.97-69.36-37.25-104.61-10.73,0,0-1.18.92-1.18.92-4.82-4.19-9.95-8.02-15.36-11.46-25.14-16.33-56.66-21.62-85.92-15.57-12.18,2.36-23.89,6.51-35.18,11.6-7.17-14.69-17.38-25.16-33.02-30.67-24.38-8.37-49.78-3.71-69.4,13.23,0,0-.69-.73-.69-.73,13.86-15.18,35.81-23.08,56.19-19.18,19.32,3.64,38.48,18.1,49.04,34.51,0,0-2.09-.66-2.09-.66,5.38-2.85,11.11-4.99,16.91-6.82,28.98-9.02,60.87-6.5,88.92,4.59,11.27,4.49,21.99,10.29,31.72,17.58,0,0-2.2.04-2.2.04,3.89-3.5,8.09-6.43,12.57-9.08,22.78-13.62,51.49-14.73,73.92.23,8.7,5.7,16.04,13.31,21.38,22.04,0,0,0,.13,0,.13h0s-1,0-1,0h0Z"/>
    <path class="cls-6" d="m218.6,275.41s2.06-5.47,13.36-3.58c1.64.23,3.01.55,4.04.85,1.46.42,2.88.83,4.52,1.79.88.51,1.56,1.03,2.03,1.41,1.17,1.22,1.63,2.21,1.38,2.97-.55,1.72-4.68,2.31-12.39,1.74,0,0-14.7-.66-12.94-5.18Z"/>
    <path class="cls-6" d="m185.27,242.61c-7.08,27.97-26.84,21.95-26.84,21.95-20.52-5.96-16.92-32.09-16.92-32.09,4.44-39.19,28.23-34.74,28.23-34.74.37.07.73.15,1.09.24h0c5.15,1.25,8.77,3.93,11.29,7.34,2.47,3.36,3.89,7.43,4.62,11.56"/>
    <path class="cls-3" d="m164.76,198.1c-6.15-5.07-8.62-15.25-2.92-21.55,6.7-7.47,23.01-8.5,31.31-3.28,3.69,2.33,6.12,6.38,6.83,10.64,2.36,10.96-7.58,21.56-18.53,21.06,0,0,0-1,0-1,12.81.04,21.87-14.02,14.9-25.24-5.71-9.93-28.21-9.04-34.35-.08-4.12,5.89-1.74,14.17,3.41,18.72,0,0-.68.74-.68.74h0Z"/>
    <path class="cls-3" d="m303.74,218.9c-5.3-1.52-10.71-4.22-13.68-9.08-3.23-4.77-3.52-11.49-.25-16.36,4.74-7.25,13.79-10.95,22.25-9.63,2.8.39,5.53,1.11,8.14,2.27,4.05,2.29,7.53,5.52,9.8,9.59,3.65,6.67,3.12,16.81-4.49,20.39,0,0-.47-.88-.47-.88,6.75-3.6,6.84-12.68,3.44-18.66-2.06-3.6-5.76-6.81-9.12-8.67-4.79-2.02-10.27-2.83-15.33-1.74-12.42,2.77-20.1,15.55-10.23,25.92,2.81,2.77,6.49,4.61,10.22,5.9,0,0-.28.96-.28.96h0Z"/>
    <path class="cls-6" d="m185.27,242.61c-6.57-1.3-13.14-2.6-19.71-3.9,7.06-7.28,14.13-14.56,21.19-21.83"/>
    <path class="cls-6" d="m338.21,255.72c-3.21,28.67-23.6,25.4-23.6,25.4-21.14-3.12-21.13-29.49-21.13-29.49-.93-39.43,23.24-38.26,23.24-38.26.37.02.74.05,1.11.09h0c5.27.54,9.22,2.7,12.19,5.74,2.91,2.99,4.86,6.83,6.15,10.83"/>
    <path class="cls-6" d="m338.21,255.72c-6.94-1-13.88-2-20.83-2.99,6.26-7.57,12.53-15.14,18.79-22.7"/>
    <path class="cls-3" d="m114.88,63.44c-8.68-8.47-18.97-14.92-30.23-19.38-12.78-5.29-33-12.76-41.56,2.53-5.22,10.49-3.59,23.39-1.77,34.64,1.51,7.75,4.93,15.01,8.66,22.22,7.25,14.5,16.19,28.07,26.68,40.38,0,0-2.94,2.57-2.94,2.57-5.37-6.32-10.33-12.87-14.91-19.75-6.85-10.38-12.78-21.18-17.79-32.55-3.34-7.7-4.8-16.11-5.39-24.45-.69-10.43-.25-22.61,7.74-30.52,13.82-13.07,39.7-.25,53.82,7.14,7.23,4.12,13.86,9.24,19.72,15.11,0,0-2.03,2.05-2.03,2.05h0Z"/>
    <path class="cls-3" d="m109.34,139.63c-2.21-24.06-13.1-47.27-31.92-62.66-6.16-5.15-13.04-9.5-20.4-12.98l.36-.93c7.89,2.47,15.33,6.42,22.03,11.38,13.45,9.96,23.64,24.38,28.27,40.49,2.27,8.04,3.3,16.44,2.66,24.69h-1Z"/>
    <path class="cls-3" d="m238.11,310.08c-3.4,14.58-16.69,23.42-31.1,24.48-9.19.08-18.21-2.07-26.65-5.61-8.51-3.58-15.59-9.81-21.42-16.89-2.92-3.6-5.45-7.49-7.67-11.58,0,0,3.73-1.63,3.73-1.63,2.82,8.3,8.06,15.88,14.97,21.34,6.91,5.51,14.92,9.92,23.69,11.57,4.32.83,8.87,1.2,13.22.98,7.51-.86,15.02-3.98,20.3-9.47,3.68-3.77,6.14-8.8,6.94-14,0,0,3.99.81,3.99.81h0Z"/>
    <path class="cls-3" d="m234.77,309.04c1.41,20.58,23.16,32.34,41.77,34.25,19.54,2.45,41.1-3.76,53.35-19.79,0,0,3.03,2.72,3.03,2.72-7.44,7.34-16.4,13-26.2,16.17-19.52,6.21-42.08,4.46-59.32-7.06-8.83-5.88-15.43-15.21-16.68-25.93,0,0,4.05-.36,4.05-.36h0Z"/>
    <path class="cls-3" d="m138.02,296.27c7.43,4.32,19.79,5.12,23.76-4.13,0,0,1.62.86,1.62.86-3.99,7.03-11.86,8.59-19.28,7.09-2.42-.41-4.69-1.03-7.04-1.84,0,0,.95-1.98.95-1.98h0Z"/>
    <path class="cls-3" d="m327.17,315.06c1.78,6.58,6.91,12.57,13.73,14.16,0,0-.26,1.3-.26,1.3-5.72-.9-10.73-4.57-13.82-9.41-1.05-1.64-1.93-3.27-2.62-5.23l2.97-.82h0Z"/>
    <path class="cls-3" d="m192.01,332c-.44,11.15-.98,20.66,6.1,30.04,4.59,6.36,11.23,10.99,18.74,13.18,7.4,2.3,15.4,3.85,23.02,1.9,10.27-2.38,18.23-10.38,23.41-19.27,2.63-4.53,4.5-9.5,5.78-14.62,0,0,.98.22.98.22-3.14,15.56-13.55,31.51-29.7,35.55-8.03,2.12-16.34.54-24.06-1.93-13.08-3.77-23.88-15.4-25.52-29.06-.55-5.38-.08-10.71.26-16.05,0,0,1,.05,1,.05h0Z"/>
    <path class="cls-3" d="m227.6,355.07c-1.69-12.4.58-25.4,6.12-36.61,0,0,.93.36.93.36-2.38,8.91-4.26,17.86-5.2,27.03-.33,3.04-.58,6.1-.85,9.19l-1,.03h0Z"/>
  </g>
</svg>