<?xml version="1.0" encoding="UTF-8"?>
<svg id="Layer_2" data-name="Layer 2" xmlns="http://www.w3.org/2000/svg" viewBox="0 0 440.51 414.08">
  <defs>
    <style>
      .cls-1 {
        fill: #999;
      }

      .cls-1, .cls-2, .cls-3, .cls-4, .cls-5 {
        stroke-width: 0px;
      }

      .cls-2 {
        fill: #666;
      }

      .cls-6, .cls-7, .cls-8, .cls-9, .cls-10 {
        stroke: #000;
        stroke-miterlimit: 10;
      }

      .cls-6, .cls-9 {
        fill: none;
      }

      .cls-8, .cls-9 {
        stroke-width: 3px;
      }

      .cls-4 {
        fill: #333;
      }

      .cls-5, .cls-10 {
        fill: #fff;
      }
    </style>
  </defs>
  <g id="Colour">
    <g>
      <path class="cls-5" d="m430.39,248.82c-23.54-19.19-42.08-18.66-55.46-12.06-.95,8.42-4.17,18.78-13.96,21.94,0,0-4.24,1.58-9.19.19-1.7,2.71-2.55,4.5-2.55,4.5-68.09-37.57-128.51,22.42-128.51,22.42-2.94-2.13-5.82-4.11-8.64-5.95-5.1,3.41-10.24,3.24-10.24,3.24-14.13-.29-20.35-11.84-22.95-19.62-58.41-18.64-86.72,31.58-98.91,62.96,8.13,18.64,21.87,37.16,44.38,52.66,17.71,12.19,37.92,19.16,49.17,22.63,45.44,14.01,83.68,8.45,99.61,5.95,15.7-2.45,44.41-7.21,72.7-24.41,18.91-11.5,36.2-27.69,39.68-30.95,7.03-6.58,11.56-11.53,13.79-14.05,9.59-10.81,16.45-20.94,21.13-28.7,4.12-7.08,9.92-19.32,11.42-35.47.86-9.31.09-17.83-1.47-25.28Zm-85.66,35.06s-7.5,25.37-26.94,24.32c-19.43-1.04-33.13-12.84-33.91-23.02,0,0-4.44-22.24,31.89-21.78,36.33.46,28.96,20.48,28.96,20.48Z"/>
      <g>
        <path class="cls-3" d="m429.11,249.6c-15.71-11.63-34.13-20.1-53.08-10.61,0,0,1.37-1.95,1.37-1.95-.72,6.57-2.45,13.23-6.9,18.47-4.71,5.54-12.49,8.07-19.49,6.14,0,0,3.2-1.24,3.2-1.24-1.31,2.05-2.6,4.72-3.62,6.95-21.26-11.9-44.29-16.29-68.27-10.95-22.86,5.05-44.38,17.11-61.3,33.25-1.76-1.19-8.76-6.09-10.57-7.32,0,0,3.27-.02,3.27-.02-3.56,2.3-7.57,3.6-11.85,3.66-12.94-.1-21.88-10.03-25.48-21.67,0,0,1.69,1.67,1.69,1.67-5.09-1.61-10.28-2.86-15.54-3.56-41.63-5.58-67.6,29.82-81.09,64.6,0,0-.02-1.21-.02-1.21,4.78,11.11,11.27,21.52,19.34,30.55,36.65,40.01,100.67,56.73,153.57,52.59,39.35-3.63,77.31-13.75,108.53-38.95,23.01-17.87,44.3-38.9,58.36-64.65,8.36-16.07,11.43-34.81,8.34-52.67-.11-.89-.48-2.2-.49-3.08h0Zm2.56-1.56c4.51,19.61,1.26,40.78-8.07,58.53-4.71,8.71-10.51,16.77-16.61,24.54-6.14,7.72-12.94,14.93-20.14,21.66-14.43,13.39-29.83,25.96-47.21,35.39-26.16,14.21-55.75,20.09-85.09,22.95-7.37.73-14.8.62-22.15,1.26-19.73-.09-39.58-2.93-58.51-8.55-17.73-5.36-35.21-12.48-50.55-23.04-19.46-13.67-35.47-32.49-45.07-54.29,4.02-10.53,8.8-20.82,14.9-30.4,11.77-18.91,30.12-35.51,52.97-38.4,11.71-1.71,23.61.17,34.79,3.67,3.01,9.85,9.91,18.96,21.01,18.87,3.67-.06,7.24-1.8,10.17-3.94.85.56,9.29,6.38,10.37,7.1,0,0-3.87.3-3.87.3,8.73-8.25,18.52-15.03,29-20.82,26.03-14.59,58.21-19.95,86.67-9.41,5.7,1.91,11.08,4.58,16.36,7.38l-4.05,1.3c1.15-2.27,2.54-4.46,3.92-6.59,0,0,2.04.58,2.04.58,3.01.89,6.5.59,9.29-.74,7.57-3.51,9.93-12.57,10.8-20.31,20.76-10.81,42.81-1.49,59.03,12.95h0Z"/>
        <path class="cls-3" d="m346.15,284.35c-3.57,12.05-11.37,26.18-25.47,26.96-12.83.27-26.26-5.26-34.12-15.61-1.8-2.44-3.21-5.27-3.89-8.25-.24-1.82-.46-3.11-.4-4.99-.18-7.61,3.72-13.3,10.38-16.61,3.43-1.63,7.1-2.63,10.84-3.02.25.06.51.28.74.25,1.54-.23,3.21-.43,4.76-.55,14.22-1.13,41.99,1.17,37.17,21.82h0Zm-2.85-.94c4.98-19.42-25.5-20.04-38.1-18.3,0,0-.65.1-.65.1-.22.04-.39.31-.59.47-3.37.84-6.67,1.88-9.54,3.55-4.39,2.41-7.42,6.23-8.88,10.9-1.21,4.77.67,9.63,3.87,13.31,6.55,7.31,16.62,10.62,26.17,11.45,13.26,1.95,23.58-10.01,27.72-21.47h0Z"/>
      </g>
    </g>
    <g>
      <path class="cls-5" d="m231.44,200.89c-.14,1.52-.99,9-7.46,14.32-4.97,4.08-10.62,4.73-14.61,4.52-3.32-2.64-7.51-4.29-12.81-4.16h-.01c-3.93-2.38-8.16-6.2-9.58-12.04-.29-1.18-1.3-5.22.47-9.57,4.22-10.45,20.53-11.95,20.53-11.95,24.37-2.69,23.47,18.88,23.47,18.88Z"/>
      <path class="cls-3" d="m232.94,200.99c-.89,13.59-10.89,23.41-24.81,21.78-3.35-3.15-7.77-4.74-12.38-4.76,0,0-.47-.32-.47-.32-3.18-2.17-6.01-5.01-7.89-8.47-1.88-3.49-2.64-7.36-2.37-11.26.1-1.93.22-4.01,1.15-5.86,2.66-5.63,8.84-8.66,14.44-10.05.21-.11.52.13.78.19,3.09-.79,6.23-1.44,9.45-1.5,12.85-.73,21.78,7.29,22.12,20.25h0Zm-2.99-.2c.2-11.64-7.52-18.56-19.05-17.9-2.99.11-6.05.52-8.91,1.47-.17.18-.29.55-.5.56-6.27,2.34-12.12,6.51-13.54,13.27-.57,6.66,4.09,12.46,9.89,15.27,0,0-1.28-.36-1.28-.36,5.15-.49,10.64.99,14.76,4.19,0,0-1.77-.67-1.77-.67,9.47.49,19.23-6.03,20.41-15.83h0Z"/>
    </g>
    <g>
      <path class="cls-1" d="m430.39,248.82c-23.54-19.19-42.08-18.66-55.46-12.06.25-2.19.34-4.25.35-6.01l-19.6,1.09,16.12-23.32c-5.79-15.88-16.57-14.9-16.57-14.9-.67.1-1.31.22-1.93.36,2.08-3.53,3.2-9.07.62-17.65,0,0-3.45-12.52-18.98-10.04,0,0-17.02,2.28-14.41,21.46,0,0,2.68,16.6,21.67,13.01-8.92,11.04-5.49,30.42-5.49,30.42,1.59,19.69,8.89,26,15.07,27.71-1.7,2.71-2.55,4.5-2.55,4.5-68.09-37.57-128.51,22.42-128.51,22.42-2.94-2.13-5.82-4.11-8.64-5.95,5.12-3.43,10.2-10.47,9.99-24.92l-24.28.63,19.04-25.87c-1.78-3.8-4.2-7.37-7.46-9.97,3.99.21,9.64-.44,14.61-4.52,6.47-5.32,7.32-12.8,7.46-14.32,0,0,.9-21.57-23.47-18.88,0,0-16.31,1.5-20.53,11.95-1.77,4.35-.76,8.39-.47,9.57,1.42,5.84,5.65,9.66,9.58,12.04-.37.01-.74.02-1.11.05,0,0-24.13,1.87-18.26,40.87,0,0,.38,3,1.71,6.99-58.41-18.64-86.72,31.58-98.91,62.96-12.42-28.46-11.72-57.2-9.12-75.83,1.78-12.72,4.45-20.73,4.45-20.73,135.66-75.65,305.22-78.26,305.22-78.26l14.57,25.95,23.52,41.87c2.92,4.72,8.79,15.12,11.77,29.38Z"/>
      <path class="cls-3" d="m431.17,250.1c-1.83-.79-4.47-2.07-6.18-3.45,0,0-1.54-1.03-1.54-1.03-1.59-1.19-4.5-2.85-6.27-3.89-15.41-8.4-29.32-9.92-44.87-1.19.32-3.07.74-6.72.68-9.8,0,0,2.42,2.3,2.42,2.3l-19.59,1.24-4.96.31,2.82-4.14,15.97-23.43-.31,2.39c-2.24-6.11-6.97-12.86-13.77-13.03-.91.18-6.71,1.32-7.78,1.52,0,0,3.11-5.35,3.11-5.35,1.66-2.85,1.96-6.52,1.42-10.21-.27-1.83-.71-3.67-1.28-5.45-2.79-7.16-9.91-9.06-16.91-7.36-8.51,2.47-11.65,9.14-10.54,17.57.81,4.23,3.75,8.37,7.67,9.91,5.04,2.44,12.91.07,18.35-.78,0,0-4.96,6.5-4.96,6.5-5.83,7.78-6.04,18.58-4.81,27.89.99,9.17,2.73,21.99,12.78,25.24,0,0,4.05,1.15,4.05,1.15-1.18,1.91-3.05,4.75-4.09,6.7-.4.81-1.57,3.09-1.95,3.92-38.53-22.44-79.27-15.28-114.77,9.42-5.22,3.67-10.36,7.74-14.88,12.18-3.24-2.26-10.31-7.18-13.52-9.41l3.16-2.14c7.33-4.88,9.03-14.44,8.98-22.72,0,0,2.53,2.43,2.53,2.43-2.95.03-26.56.55-29.04.58.88-1.29,20.43-27.34,22.02-29.55,0,0-.21,2.17-.21,2.17-1.65-3.59-3.88-6.89-6.81-9.27l-5.01-4.05,6.4.39c9.28.78,17.64-5.31,19.66-14.4,1.07-4.36-.14-8.92-2.33-12.67-2.33-3.82-6.39-6.08-10.8-6.75-9.73-1.42-26.23,2.39-27.85,13.72-.91,6.85,3.22,13.23,9.18,16.68,0,0,4.4,2.65,4.4,2.65l-5.16.21-.84.03c-.16,0-.24.01-.36.03l-.39.06c-19.56,4.19-19.4,30.43-14.56,45.73,0,0,1.02,2.98,1.02,2.98-6.12-1.89-12.48-3.51-18.82-4.2-43.72-4.93-69.25,33.24-82.58,69.67-9.41-20.32-13.31-42.9-12.21-65.2.31-6.21.93-12.41,1.93-18.55.31-2.05.71-4.09,1.32-6.08,1.2-4.01,1.88-8.05,3.2-12.04,0,0,.13-.39.13-.39l.37-.2c34.84-19.3,71.94-34.27,110.03-45.79,63.75-19.07,129.95-30.27,196.45-32.85,7.57,13.42,30.16,53.45,37.39,66.28,4.8,7.92,8.98,16.24,11.49,25.18.75,2.64,1.85,5.67,1.02,8.34h0Zm-1.56-2.56c-.38-.42-.86-.59-1.06-.68-.11-.06-.16-.13-.19-.26-.86-3.52-1.89-7.01-3.17-10.4-2.93-8.44-8.08-16.31-12.34-24.14-4.27-7.51-28.63-51.29-33.44-59.81,0,0,1.14.66,1.14.66-13.16.35-26.38,1.3-39.53,2.52-26.33,2.46-52.54,6.19-78.51,11.14-32.46,6.16-64.57,14.33-95.92,24.79-6.24,2.17-12.51,4.26-18.68,6.63-23.96,8.31-51.58,22.11-71.58,32.24-1.54,4.81-2.66,9.84-3.09,14.9-1.16,7-1.93,14.13-2.19,21.23-.43,12.17.52,24.42,3.17,36.29,1.75,7.91,4.24,15.65,7.5,23.05l-3.5.07c17-44.58,49.76-81.11,101.17-63.83,0,0-2.05,2.07-2.05,2.07-1.22-3.39-1.76-7.42-2.15-11.04-1.83-15.33,1.57-35.04,19.29-38.76.58-.12,1.44-.15,2.03-.18,0,0-.76,2.86-.76,2.86-12.78-7.16-15.68-24.75-1.59-32.32,15.92-8.44,37.97-6.27,39.14,15.44.08,1.4-.21,2.77-.49,4.12-2.31,10.94-12.38,18.43-23.55,17.65,0,0,1.39-3.66,1.39-3.66,4,3.16,6.63,7.39,8.65,11.81,0,0-.75,1.04-.75,1.04l-18.89,25.98-1.93-3.7c1.21-.06,26.6-.83,26.8-.85.2,8.27-.43,17.07-5.38,24.08-1.49,2.16-3.42,4.05-5.61,5.55l-.03-4.35,8.78,5.98-3.44.27c30.12-28.23,75.11-45.13,115.46-30.53,5.72,1.87,11.12,4.51,16.43,7.27l-4.33,1.39c.83-1.67,1.74-3.26,2.72-4.83,0,0,1.82,4.69,1.82,4.69-6.42-1.67-11.2-7.32-13.58-13.17-2.34-5.47-3.3-11.44-3.82-17.3-.76-4.05-.87-11.3-.15-16.49.81-5.76,2.66-11.46,6.36-16.16,0,0,3.03,5.06,3.03,5.06-2.14.34-4.78.6-6.9.51-2.04-.13-4.27-.54-6.22-1.21-6.46-2.36-11.11-8.49-12.22-15.18-1.08-8.28,1.24-16.64,8.6-21.32,3.99-2.65,8.76-3.81,13.52-3.63,7.42-.09,14.95,5.12,17.15,12.47,1.88,6.46,2.59,13.82-1,19.91,0,0-3.03-4.15-3.03-4.15l1.81-.33.23-.04c.09-.02.21-.04.3-.04,5.7-.16,10.95,3.2,14.3,7.56,2.49,3.07,4.03,6.81,5.45,10.46,0,0-.81,1.16-.81,1.16l-16.27,23.21-2.14-3.82,19.61-.94,2.46-.12c-.08,2.84-.07,5.84-.47,8.66,0,0-3.19-2.25-3.19-2.25,16.09-7.94,33.93-3.59,48.2,6.02,1.63,1.02,3.12,2.23,4.7,3.3,1.35.98,1.6,1.99,2.76,3.45h0Z"/>
    </g>
    <path class="cls-8" d="m315.77,263.4c-36.33-.46-31.89,21.78-31.89,21.78.78,10.18,14.48,21.98,33.91,23.02,19.44,1.05,26.94-24.32,26.94-24.32,0,0,7.37-20.02-28.96-20.48Zm18.86,11.58c-.35,1.77-4.39,2.82-12.11,3.14,0,0-14.67,1.03-13.45-3.67,0,0,1.42-5.67,12.86-5.08,1.66.03,3.06.2,4.11.38,1.5.24,2.96.49,4.7,1.26.93.4,1.66.84,2.17,1.17,1.3,1.07,1.88,2.01,1.72,2.8Z"/>
    <path class="cls-3" d="m299.56,336.97c1.87-1.86,3.85-3.54,5.92-5.15,3.01-2.15,6.22-4.76,10.09-5.43.39-.06,1.13,0,1.49.1,4.1,1.06,7.44,3.3,10.6,5.93,0,0-1.03,1.64-1.03,1.64-2.38-.94-4.7-2.02-6.99-2.92-2.49-.83-3.25-1.7-5.85-.38-3.81,1.78-9.2,5.56-12.85,7.88,0,0-1.37-1.68-1.37-1.68h0Z"/>
    <g>
      <path class="cls-4" d="m436.59,157.52c-1.02,1.7-2.22,3.03-3.04,3.94-4.86,5.39-10.53,6.92-18.35,9.35-5.05,1.57-11.86,3.79-20.1,6.76l-14.57-25.95s-169.56,2.61-305.22,78.26c0,0-2.67,8.01-4.45,20.73-13.52.73-27.33,1.07-38.94.46-1.95-1.76-3.48-3.9-3.63-6.39-.66-10.73,24.79-19.89,35.91-24.56,88.25-37.04,164.35-55.56,164.35-55.56,0,0,68.79-16.74,154.17-22.18,7.27-.46,23.47-2.21,40.17,6,5.68,2.8,10.22,6.12,13.7,9.14Z"/>
      <path class="cls-3" d="m438.07,157.28c-.01.58-.26,1.21-.62,1.68-4.67,7.27-11.69,10.42-19.54,12.69-6.31,2-15.81,5.39-22.22,7.54,0,0-1.39.47-1.39.47l-.71-1.26-14.7-25.88,1.67.96c-65.85,2.98-131.54,14.22-194.65,33.25-37.78,11.52-74.66,26.48-109.21,45.61,0,0,1.31-1.58,1.31-1.58-2,6.54-3.35,13.44-4.31,20.23,0,0-.33,2.33-.33,2.33l-2.35.13c-13.07.69-26.13,1.13-39.25.5,0,0-1.03-.05-1.03-.05l-.76-.69c-18.39-18.12,23.15-31.31,35.06-36.63,55.22-22.74,111.82-42.68,170.07-56.1,35.98-7.39,72.44-12.65,108.98-16.31,3.35-.36,10.33-1.03,13.71-1.29,9.14-.85,18.32-1.4,27.46-2.04,4.6-.32,9.28-.42,13.93-.09,13.43.91,26.62,5.88,37.02,14.5,0,0,.69.57.69.57.47.39.9.95,1.15,1.45h0Zm-2.96.47c-.18.13-.18.32-.15.34l-.63-.53c-6.45-5.38-13.97-9.48-22.07-11.77-8.7-2.49-17.78-2.9-26.8-2.24-18.28,1.26-36.51,2.88-54.68,5.2-36.23,4.71-72.45,10.8-107.82,19.96-17.62,4.86-35.15,10.13-52.57,15.69-34.82,11.2-69.3,23.56-103.07,37.62-8.53,3.54-17.05,6.73-24.79,11.06-5.4,3.19-16.26,9.48-8.67,15.84,0,0-1.79-.74-1.79-.74,6.39.33,12.83.37,19.27.27,6.45-.1,12.9-.36,19.36-.7l-2.68,2.46c.76-5.35,1.77-10.67,3.09-15.92.49-2.07,1.16-4.24,1.83-6.36,0,0,.97-.54.97-.54,81.81-44.78,174.46-66.51,266.78-75.3,13.6-1.2,27.21-2.11,40.92-2.39,0,0,.55.99.55.99l14.44,26.02-2.1-.78c6.26-2.06,16.15-5.41,22.44-7.36,5.54-1.69,10.89-3.37,14.88-7.53,1.19-1.22,2.37-2.57,3.29-4.01-.12.17-.14.5-.02.72h0Z"/>
    </g>
    <g>
      <path class="cls-2" d="m436.59,157.52c-3.48-3.02-8.02-6.34-13.7-9.14-16.7-8.21-32.9-6.46-40.17-6-85.38,5.44-154.17,22.18-154.17,22.18,0,0-76.1,18.52-164.35,55.56-11.12,4.67-36.57,13.83-35.91,24.56.15,2.49,1.68,4.63,3.63,6.39-15.79-.81-27.5-3.36-28.91-9.05-1.47-5.95,8.43-14.23,26.08-24.5,10.5-6.11,20.45-11.57,29.75-16.42h.01c26.1-13.64,47.01-22.52,60.27-27.66,10.2-3.96,15.87-5.71,15.87-5.71,7.81-2.47,15.39-4.79,22.71-6.97,25.69-7.63,48.23-13.46,66.7-17.88,14.23-3.41,51.02-11.95,85.31-16.44,0,0,23.45-3.07,48.49-3.78,3.13-.08,6.28-.14,9.42-.14.7,0,1.3,0,1.96.01,10.24.1,22.23,1.32,35.18,4.49.79.19,1.58.39,2.38.6,2.97.77,7.08,1.97,11.93,4.14.98.43,5.21,2.35,10.24,5.74,4.69,3.18,5.96,4.85,6.53,5.68.66.96,2.52,3.66,2.71,7.2.15,2.79-.78,5.2-1.96,7.14Z"/>
      <path class="cls-3" d="m436.82,159c-.88-.12-1.83-.81-2.5-1.43-6.49-5.31-14.04-9.32-22.13-11.53-4.3-1.19-8.74-1.92-13.21-2.23-4.48-.3-8.97-.19-13.5.15-18.28,1.28-36.49,2.98-54.65,5.23-31.77,3.96-63.39,9.21-94.66,16.07-57.7,14.15-114.01,34.01-168.91,56.64-8.64,3.9-36.5,13.19-36.08,22.99.18,1.3,1.21,2.77,2.65,4.06l6.03,5.39c-10.21-.75-33.86-.33-39.06-10.02-6.23-12.7,25.36-28.07,34.01-33.47,7.48-4.25,15.03-8.38,22.65-12.37l.64-.33h.73s-1.36.33-1.36.33c15.18-7.93,30.63-15.37,46.41-22.09,11.8-5,23.92-9.79,36.26-13.42,20.3-6.31,41.11-12.21,61.69-17.41,49.77-12.2,100.37-22.63,151.74-24.24,17.16-.8,34.48.08,51.19,4.29,8.41,1.9,16.71,5.11,23.96,9.85,2.77,1.83,5.61,3.65,7.82,6.27,2.95,3.68,4.42,8.76,2.8,13.36-.59,1.34-1.04,3.32-2.54,3.9h0Zm-.46-2.96c-.29-.08-.7.1-.82.32-.05.09,0,0,0-.01,2.21-3.58,1.96-8.14-.4-11.64-1.86-3.01-4.99-4.92-7.89-6.92-7.02-4.62-14.87-7.64-23.11-9.53-16.51-4.2-33.47-4.82-50.44-3.97-51.09,2.13-101.15,13.8-150.44,26.75-24.53,6.48-49.26,13.64-73.37,21.59-23.93,8.6-47.09,19.35-69.67,31.07,0,0-.64.34-.64.34h-.72s1.36-.33,1.35-.33c-14.88,7.97-30.32,15.91-44.07,25.55-6.26,4.52-14.62,12.06-7.87,14.53,3.33,1.78,7.45,2.62,11.29,3.23,4.09.62,8.29.98,12.5,1.2l-2.06,4.97c-11.03-10.15.05-19.96,9.7-25.12,8.28-4.63,17-7.86,25.39-11.36,16.96-7.09,34.13-13.66,51.4-19.93,36.76-13.23,74-25.08,111.89-34.65,33.61-7.62,67.73-13,101.96-16.95,18.25-2.09,36.58-3.63,54.9-4.74,16.27-1.35,33.4,1.84,46.8,11.59,1.69,1.14,3.28,2.48,4.84,3.76-.06-.07-.39-.03-.53.24h0Z"/>
    </g>
    <g>
      <path class="cls-1" d="m157.7,160.76c-7.32,2.18-14.9,4.5-22.71,6.97,0,0-5.67,1.75-15.87,5.71-13.26,5.14-34.17,14.02-60.27,27.66h-.01c-8-9.03-13.32-17.53-16.75-23.82-12.95-23.77-14.69-44.95-15.3-54.16-1.2-18.22,1.96-27.61,3.33-31.21,2.58-6.8,4.86-12.78,10.33-16.62,10.46-7.32,26.05-2.42,41.4,4.31,2.69,1.18,5.38,2.42,8.03,3.66,9.94,4.64,24.32,12.76,39.24,26.94,1.04,1,2.47,2.5,4.15,4.47,3.26,3.82,7.48,9.41,11.7,16.47,6.48,10.84,10.35,21.16,12.73,29.62Z"/>
      <path class="cls-3" d="m159.01,161.48c-8.42,3.04-17.72,6.05-26.28,8.89-25.05,9.01-49.23,20.45-72.8,32.8,0,0-.51.27-.51.27h-1.63s-.7-.79-.7-.79c-21.08-23.39-32.87-54.63-32.99-86.11-.27-12.79,2.31-25.68,9-36.82,9.96-15.93,30.9-10.21,45-4.18,14.41,5.97,28.39,13.22,40.64,23.01,4.91,3.95,9.71,7.87,13.95,12.6,8.46,9.3,15.04,20.13,20.2,31.55,2.21,5,4.1,10.15,5.63,15.4.35,1.02.57,2.33.51,3.38h0Zm-2.63-1.45c-.34-.26-.52-.17-.62-.51-.29-.91-.56-1.82-.87-2.72-5.29-15.78-13.73-30.75-25.07-42.96-12.73-13.03-28.31-23.21-45.04-30.45-10.66-4.67-22.49-10.11-34.19-9.24-9.64.85-14.22,7.53-17.26,16.06-5.82,13.96-4.82,29.46-2.9,44.39,3.45,23.97,14.05,46.82,30.16,64.96l-1.75-.79s-1.08.26-1.07.27c24.88-12.74,50.37-24.52,77.02-33.09,7.02-2.09,14.46-4.04,21.6-5.9h0Z"/>
    </g>
    <path class="cls-3" d="m58.1,100.61c1.61-.3,2.16.52,3.03,1.09l2.48,1.81c24.56,17.94,50.2,40.62,57.54,71.4,0,0-2.87.88-2.87.88-6.16-14.92-15.6-28-26.15-40.13-9.27-10.64-19.46-20.81-30.17-30.08,0,0-2.32-2.02-2.32-2.02-.81-.7-2.11-1.69-1.55-2.95h0Z"/>
    <g>
      <path class="cls-2" d="m346.62,78.32c-11.3-4-23.66-7.31-37.04-9.4-79.14-12.38-145.59,24.97-176.31,45.75-1.68-1.97-3.11-3.47-4.15-4.47-14.92-14.18-29.3-22.3-39.24-26.94-2.65-1.24-5.34-2.48-8.03-3.66,6.77-7.69,14.57-15.47,23.59-23C149.38,19.9,198.59,8.77,229.23,5.01c8.9-1.5,66.68-10.41,96,23.22,4.93,5.65,8.52,12.35,12.04,21.46,2.93,7.59,5.81,16.87,9.35,28.63Z"/>
      <path class="cls-3" d="m347.65,79.4c-1.14.14-2.8,0-4.01-.51,0,0-.83-.27-.83-.27-3.29-1.06-6.72-2.11-10.02-2.99-13.42-3.63-27.27-5.94-41.15-6.76-55.96-3.49-111.07,16.79-156.85,48.03,0,0-1.91,1.3-1.91,1.3l-1.66-1.78c-3.37-3.8-7.07-7.3-11-10.51-11.8-10.06-25.24-17.68-39.49-23.76,0,0-3.45-1.58-3.45-1.58l2.48-2.81C117.52,34.31,171.63,8.99,228.35,2.34c34.49-5.4,78.19-2.41,100.97,27.58,9.07,12.82,12.85,28.3,17.33,43.05.53,1.89,1.46,4.47,1,6.43h0Zm-2.07-2.17c-.43-.4-.91-.28-1.08-.63,0,0-.09-.28-.09-.28l-.78-2.43c-4.81-14.17-8.73-29.3-17.72-41.42-4.01-5.17-9-9.6-14.43-13.23-23.84-15.24-55.08-15.67-82.33-11.43-15.03,1.94-29.98,5.03-44.44,9.56-38.55,11.78-74.14,33.68-100.77,64.07,0,0-.97-4.39-.97-4.39,14.6,6.25,28.64,14.3,40.75,24.69,4.15,3.42,8.04,7.14,11.61,11.18,0,0-3.57-.49-3.57-.49,46.82-31.44,103.2-51.76,160.14-47.39,17.65,1.26,35.18,4.88,51.89,10.69,0,0,.84.29.84.29l.38.13c.05.02.09.05.12.09.12.13.13.55.46,1h0Z"/>
    </g>
    <path class="cls-3" d="m82.91,80.66l.96.97s.07.08-.05-.05l-.92-.91c-.62-.62-2.65-2.64-3.08-3.09.63.62,2.45,2.44,3.09,3.08h0Z"/>
    <g>
      <path class="cls-4" d="m358.2,122.66c-25.04.71-48.49,3.78-48.49,3.78-34.29,4.49-71.08,13.03-85.31,16.44-18.47,4.42-41.01,10.25-66.7,17.88-2.38-8.46-6.25-18.78-12.73-29.62-4.22-7.06-8.44-12.65-11.7-16.47,30.72-20.78,97.17-58.13,176.31-45.75,13.38,2.09,25.74,5.4,37.04,9.4.75,2.49,1.53,5.1,2.35,7.82,3.24,10.79,5.72,20.61,7.62,29.08h0c.59,2.63,1.12,5.1,1.61,7.44Z"/>
      <path class="cls-3" d="m359.38,123.58c-4.48.99-9.29.82-13.87,1.19-64.42,4.26-127.38,20.65-189.2,38.49-3.5-13.16-9.19-25.7-16.78-37.01-2.79-4.19-5.86-8.2-9.14-12,0,0,1.8-1.21,1.8-1.21,50.48-34.05,112.54-54.89,173.74-46.02,14.21,1.91,28.2,5.49,41.68,10.34,3.75,12.4,7.28,24.92,10.03,37.6.49,1.91.86,5.73,1.74,8.6h0Zm-2.36-1.86c-.15-1.87-1.12-4.27-1.48-6.26-1.19-5.1-2.99-12.61-4.66-18.5-1.67-6.13-3.57-12.2-5.42-18.3l.76.79c-15.37-5.38-31.38-8.99-47.59-10.53-58.32-5.91-116.49,14.76-164.27,47.34,0,0,.39-2.87.39-2.87,5.78,6.8,10.75,14.2,14.98,22.06,4.19,7.86,7.51,16.18,9.92,24.75l-2.52-1.39c57.36-16.53,115.74-31.51,175.41-36.35,6.4-.49,12.8-.86,19.21-1.11,1.75-.14,3.5-.07,5.28.37h0Z"/>
    </g>
    <g>
      <path class="cls-1" d="m412.75,95.79c-1.43,8.3-3.81,19.01-7.99,31.23-12.95-3.17-24.94-4.39-35.18-4.49-.66-.01-1.26-.01-1.96-.01-3.14,0-6.29.06-9.42.14-.49-2.34-1.02-4.81-1.61-7.43h0c-1.9-8.48-4.38-18.3-7.62-29.09-.82-2.72-1.6-5.33-2.35-7.82-3.54-11.76-6.42-21.04-9.35-28.63,7.26-6.34,18.38-15.67,30.09-23.94,3.03-2.14,9.01-6.28,17.65-7.83,3.85-.7,8.31-1.45,13.13.39,7.38,2.83,10.81,9.9,12.91,14.42,2.43,5.21,4,11.17,4.31,25.37.2,9.63.2,21.33-2.61,37.69Z"/>
      <path class="cls-3" d="m414.23,96.04c-1.85,11.2-4.68,22.25-8.34,33-15.57-3.97-31.62-5.06-47.64-4.43,0,0-1.62.02-1.62.02l-.34-1.57c-2.7-12.9-6.19-26.66-10.43-40.28-3.05-10.08-7.15-23.99-10.91-33.67,10.13-8.79,20.54-17.28,31.6-24.96,8.15-5.75,18.27-9.5,28.48-8.29,8.9,1.35,14.49,9.34,17.63,17.07,3.33,7.62,3.66,16.09,3.9,24.25.14,6.47.09,12.98-.37,19.46-.39,5.66-1.09,11.33-2.01,16.92-.05.4-.19.79-.14,1.21.06.42.26.87.18,1.27h0Zm-2.96-.51c.05-.4.38-.75.57-1.12.29-.74.44-2.75.61-3.56,1.63-11.13,2.05-22.36,1.65-33.61-.32-7.97-.71-15.97-3.98-23.19-2.94-6.83-7.73-14.01-15.6-15.1-9.09-.91-18.55,2.67-25.93,8.09-10.4,7.49-20.38,15.63-30.04,24.11l.54-2.18c4.13,10.72,7.33,21.68,10.62,32.64,3.19,10.38,6.86,24.17,8.79,33.17,0,0,1.61,7.46,1.61,7.46l-1.96-1.55c7.87-.15,15.8-.26,23.66.58,7.88.77,15.69,2.15,23.35,4.07l-2.02,1.11c3.51-10.07,6.25-20.42,8.13-30.93h0Z"/>
    </g>
    <path class="cls-3" d="m355.86,115.16c.35-25.23,18.1-55.44,36.35-72.3,0,0,2.2,2.04,2.2,2.04-11.67,16.27-23.87,32.52-31.48,51.17-2.54,6.19-4.47,12.59-5.61,19.21,0,0-1.47-.12-1.47-.12h0Z"/>
    <path class="cls-10" d="m334.63,274.98c-.35,1.77-4.39,2.82-12.11,3.14,0,0-14.67,1.03-13.45-3.67,0,0,1.42-5.67,12.86-5.08,1.66.03,3.06.2,4.11.38,1.5.24,2.96.49,4.7,1.26.93.4,1.66.84,2.17,1.17,1.3,1.07,1.88,2.01,1.72,2.8Z"/>
    <path class="cls-7" d="m212.08,279.86c-5.1,3.41-10.24,3.24-10.24,3.24-14.13-.29-20.35-11.84-22.95-19.62,10.13,3.23,21.17,8.54,33.19,16.38Z"/>
    <path class="cls-7" d="m222.07,254.94c.21,14.45-4.87,21.49-9.99,24.92-12.02-7.84-23.06-13.15-33.19-16.38-1.33-3.99-1.71-6.99-1.71-6.99-5.87-39,18.26-40.87,18.26-40.87.37-.03.74-.04,1.11-.05h.01c5.3-.13,9.49,1.52,12.81,4.16,3.26,2.6,5.68,6.17,7.46,9.97l-19.04,25.87,24.28-.63Z"/>
    <path class="cls-10" d="m353.3,193.98c-4.96,1.14-8.54,3.62-11.09,6.78h-.01c-18.99,3.59-21.67-13.01-21.67-13.01-2.61-19.18,14.41-21.46,14.41-21.46,15.53-2.48,18.98,10.04,18.98,10.04,2.58,8.58,1.46,14.12-.62,17.65Z"/>
    <path class="cls-7" d="m375.28,230.75c-.01,1.76-.1,3.82-.35,6.01-11.69,5.77-19.45,16.18-23.15,22.13-6.18-1.71-13.48-8.02-15.07-27.71,0,0-3.43-19.38,5.49-30.42h.01c2.55-3.16,6.13-5.64,11.09-6.78.62-.14,1.26-.26,1.93-.36,0,0,10.78-.98,16.57,14.9l-16.12,23.32,19.6-1.09Z"/>
    <path class="cls-7" d="m374.93,236.76c-.95,8.42-4.17,18.78-13.96,21.94,0,0-4.24,1.58-9.19.19,3.7-5.95,11.46-16.36,23.15-22.13Z"/>
  </g>
  <g id="Artwork">
    <path class="cls-3" d="m76.47,230.83c.05-.03.1-.07.14-.12.03-.02.08-.17.04-.07l-.09.31c-1.79,6.52-2.97,13.2-3.81,19.91-4.32,34.63,2.42,70.59,24.17,98.44,17.13,22.04,41.46,37.04,67.69,46.15,32.85,11.99,68.51,15.19,103.09,10.32,35.91-4.43,67.86-14.76,96.45-37.58,22.07-17.15,42.57-37.3,56.37-61.8,15.17-27.9,11.82-62.83-5.29-89.05-9.34-16.67-26.58-47.97-36-65,0,0,1.32.76,1.32.76-6.57-.56-13.2.19-19.79.54-6.59.45-13.18.98-19.76,1.61-26.33,2.5-52.53,6.28-78.5,11.27-64.63,12.39-128.24,32.49-186.03,64.3h0Zm-2.31-1.91c23.25-13.03,47.92-24.02,72.91-33.2,49.75-18.45,101.75-30.49,154.23-38,24.61-3.46,49.39-5.97,74.23-7.02,1.95-.11,3.87-.62,5.85-.6,0,0,.45.79.45.79l21.02,36.84,20.98,36.98c3.33,6.41,5.92,13.2,7.68,20.21,3.62,13.98,3.54,28.97-.32,42.9-5.73,20.85-19.25,38.52-33.32,54.46-9.69,10.46-20.29,19.98-31.44,28.85-11.17,8.88-23.2,16.85-36.2,22.85-19.47,9.19-40.6,14.02-61.77,17.13-35.38,5.64-72.21,2.41-105.96-9.71-58.73-19.84-96.86-66.41-95.39-129.67.36-13.87,2.26-27.74,6.34-41.02.19-.59.35-1.24.7-1.79h0Z"/>
    <path class="cls-9" d="m283.88,285.18s-4.43-22.24,31.89-21.78,28.96,20.48,28.96,20.48c0,0-7.5,25.37-26.93,24.33-19.43-1.04-33.13-12.85-33.91-23.02Z"/>
    <path class="cls-3" d="m299.56,336.97c1.87-1.86,3.85-3.54,5.92-5.15,3.01-2.15,6.22-4.76,10.09-5.43.39-.06,1.13,0,1.49.1,4.1,1.06,7.44,3.3,10.6,5.93,0,0-1.03,1.64-1.03,1.64-2.38-.94-4.7-2.02-6.99-2.92-2.49-.83-3.25-1.7-5.85-.38-3.81,1.78-9.2,5.56-12.85,7.88,0,0-1.37-1.68-1.37-1.68h0Z"/>
    <path class="cls-3" d="m394.59,176.15c3.58-1.28,16.6-5.72,20.29-7.03,4.39-1.44,8.93-2.67,12.8-5.09,10.82-7.52,12.8-17.42.3-24.97-7.77-5.23-16.42-8.38-25.58-10.31-11.43-2.58-23.13-3.93-34.84-3.85-49.83.37-98.94,10.18-147.2,21.89-22.99,5.65-45.97,11.89-68.6,18.88-7.83,2.43-19.35,5.8-26.93,8.8-35.07,13.58-64.63,28.06-95.99,45.49-5.1,2.88-10.1,5.96-14.76,9.4-3.35,2.56-6.76,5.22-8.84,8.81-3.95,7.03,8.1,9.06,12.8,10.04,17.38,2.74,35.22,1.85,52.75.89,0,0,.16,3,.16,3-5.91.28-11.84.47-17.76.56-11.9.16-23.8.19-35.63-1.63-7.17-1.06-20.14-4.64-15.15-14.34,2.24-4.19,5.98-7.25,9.55-10.12,4.76-3.71,9.81-6.9,14.87-10.03,10.14-6.15,20.39-12.09,30.84-17.72l.52-.28h.66s-1.17.28-1.17.28c25.23-13.57,51.35-25.92,78.71-34.65,4.69-1.45,16.01-4.88,20.5-6.26,66.34-18.93,134.17-36.32,203.5-37.72,19.21-.49,38.94,1.61,56.98,8.5,4.55,1.84,8.87,4.24,12.91,6.97,6.82,4.2,12.51,11.5,9.36,19.95-2.04,4.95-5.66,8.64-10.03,11.49-6.09,3.61-13.86,5.07-20.46,7.46,0,0-13.52,4.41-13.52,4.41l-1.02-2.82h0Z"/>
    <path class="cls-3" d="m30.91,252.18c-17.21-16.43,23.88-29.52,34.61-34.44,50.81-21.32,103.04-39.21,156.26-53.51,17.76-4.62,35.96-7.98,54.02-11.18,36.2-6.26,72.76-10.65,109.42-13.04,4.62-.34,9.34-.4,14.04-.04,14.12.97,27.98,6.68,38.31,16.41,0,0-1.97,2.27-1.97,2.27-10.42-8.58-23.27-13.54-36.66-14.39-4.45-.3-8.91-.17-13.44.12-18.28,1.17-36.49,2.77-54.67,4.91-31.79,3.76-63.46,8.84-94.75,15.6-40.05,9.45-79.31,22.3-118.03,36.17-17.2,6.28-34.32,12.79-51.23,19.8-8.51,3.51-17.08,6.68-24.95,11.06-3.87,2.19-7.75,4.68-10.32,7.95-2.81,3.5-2,7.23,1.36,10.08,0,0-2.01,2.23-2.01,2.23h0Z"/>
    <path class="cls-3" d="m58.85,202.6s-.65.01-.66.01c0,0-.48-.52-.48-.52-4.23-4.59-8.11-9.51-11.63-14.68-14.2-20.74-21.63-45.77-21.93-70.87-.07-7.86.53-16.02,3.02-23.64,1.69-4.65,3.14-8.9,5.84-13.23,12.37-18.88,37.66-7.76,53.66-.45,11.41,4.97,22.34,11.5,32.13,19.24,7.38,5.81,14.46,12.27,19.99,19.91,9.32,12.56,16.35,26.88,20.34,41.98,0,0-2.89.81-2.89.81-5.23-17.42-14.17-33.89-26.51-47.25-12.72-13.03-28.34-23.1-45.01-30.41-10.62-4.69-22.45-10.15-34.13-9.27-9.63.86-14.13,7.52-17.22,16-9.31,22.61-3.04,57.34,7.02,79.2,4.97,11.09,11.66,21.39,19.56,30.68,0,0-1.16-.51-1.11-.51,0,0,0,3,0,3h0Z"/>
    <path class="cls-3" d="m58.1,100.61c1.61-.3,2.16.52,3.03,1.09l2.48,1.81c24.56,17.94,50.2,40.62,57.54,71.4,0,0-2.87.88-2.87.88-6.16-14.92-15.6-28-26.15-40.13-9.27-10.64-19.46-20.81-30.17-30.08,0,0-2.32-2.02-2.32-2.02-.81-.7-2.11-1.69-1.55-2.95h0Z"/>
    <path class="cls-3" d="m80.78,78.55c29.85-35.22,71.62-59.31,116.25-70.37,11.11-2.87,22.56-4.65,33.87-6.25,11.49-1.74,23.1-2.33,34.72-1.65,33.13,2.02,62.83,15.08,74.12,48.37,3.93,10.48,7.07,22.15,10.23,32.85,3.23,11.09,6.12,22.37,8.32,33.71,0,.05-.04-.37-.04-.36,0,0,1.43,7.49,1.43,7.49l-2.94.61-1.79-7.37c-3.12-13.01-8.27-29.56-12.77-43.65-7.42-22.6-12.53-41.96-34.56-54.42-26.33-14.77-58.21-13.3-87.15-8.5-18.59,2.88-36.89,7.67-54.42,14.5-28,11.03-53.92,27.6-75.25,48.88-2.73,2.73-5.25,5.35-7.89,8.26,0,0-2.12-2.12-2.12-2.12h0Z"/>
    <path class="cls-3" d="m132.43,113.42c60.6-44.22,143.04-63.64,214.69-36.52,0,0-1,2.83-1,2.83-14.3-4.88-29.09-8.2-44.09-9.88-54.68-6.42-109.26,11.11-155.93,38.86-4.05,2.31-8.01,4.76-11.98,7.2l-1.68-2.48h0Z"/>
    <path class="cls-3" d="m336.28,48.56c8.7-7.89,17.75-15.42,27.21-22.4,3.2-2.35,6.47-4.76,10.09-6.53,5.56-2.74,11.53-4.22,17.75-4.48,11.86-.31,18.7,9.08,22.5,19.11,2.9,7.64,3.14,15.74,3.3,23.71.51,22.57-3.28,45.21-10.43,66.6,0,0-.47,1.39-.47,1.39-.15.47-.4.9-.05,1.54l-2.84-.97c.65-.29.72-.78.88-1.24l.45-1.38c7.99-24.87,10.84-51.37,8.1-77.35-1-9.61-6.33-23.55-16.23-26.68-3.46-1.1-7.02-.76-10.62-.09-7.53,1.17-14.13,4.96-20.16,9.47-9.47,6.78-18.56,14.07-27.49,21.56,0,0-1.97-2.26-1.97-2.26h0Z"/>
    <path class="cls-3" d="m355.85,115.23c.33-25.26,18.09-55.49,36.36-72.37,0,0,2.2,2.04,2.2,2.04-11.67,16.27-23.87,32.52-31.48,51.17-2.54,6.19-4.47,12.59-5.61,19.21,0,0,0-.09,0-.05h-1.47Z"/>
    <path class="cls-3" d="m79.51,326.25c18.83-56.67,60.76-88.23,117.95-56.21,6.53,3.7,12.92,7.67,19,12.07,0,0,4.59,3.24,4.59,3.24l-.73.06c29.75-26.76,73.91-46.74,113.24-29.89,5.49,2.11,10.69,4.79,15.93,7.4l-.75.24c3.74-7.4,8.46-14.25,14.43-20.06,21.08-20.26,47.99-12.86,67.54,5.34,0,0-.63.77-.63.77-6.58-4.76-13.54-8.99-21.02-11.72-7.42-2.79-15.45-3.96-23.11-2.5-15.7,3.16-29,15.16-36.5,29.14-5.23-2.87-10.67-5.46-16.43-7.04-4.8-1.51-9.8-2.31-14.76-3.1-29.32-4.65-59.61,4.23-83.69,21.24-4.85,3.44-9.56,7.15-13.78,11.3-7.76-5.41-15.8-10.42-24.34-14.49-34.81-16.63-67.93-14.43-93.32,16.57-9.33,11.34-16.54,24.44-22.68,38.01l-.93-.36h0Z"/>
    <path class="cls-6" d="m309.07,274.45s1.42-5.67,12.86-5.09c1.66.04,3.05.21,4.11.38,1.5.25,2.95.49,4.7,1.26.93.41,1.67.84,2.18,1.17,1.3,1.08,1.87,2.01,1.72,2.8-.35,1.78-4.39,2.82-12.11,3.15,0,0-14.67,1.03-13.45-3.67Z"/>
    <path class="cls-6" d="m222.07,254.94c.41,28.85-20.23,28.16-20.23,28.16-21.36-.44-24.66-26.61-24.66-26.61-5.87-39,18.26-40.87,18.26-40.87.37-.03.74-.04,1.11-.05h.01c5.3-.13,9.49,1.52,12.81,4.16,3.26,2.6,5.68,6.17,7.46,9.97"/>
    <path class="cls-6" d="m371.8,208.52c-5.79-15.88-16.57-14.9-16.57-14.9-24.52,3.65-18.52,37.56-18.52,37.56,1.59,19.69,8.89,26,15.07,27.71,4.95,1.39,9.19-.19,9.19-.19,9.79-3.16,13.01-13.52,13.96-21.94.25-2.19.34-4.25.35-6.01"/>
    <path class="cls-3" d="m209.4,219.23c4.78.22,9.66-1.04,13.43-3.94,5.54-4.23,9.04-11.78,7.42-18.71-.89-4.6-3.4-8.96-7.48-11.39-9.05-5.33-26.17-2.07-32.8,5.96-4.6,5.61-3.22,14.18,1.38,19.4,1.55,1.81,3.44,3.32,5.48,4.59l-.52.86c-4.32-2.51-8.09-6.33-9.66-11.18-3.78-11.6,4.31-19.43,14.9-22.31,7.14-2.01,15.39-2.55,22.04,1.33,5.58,3.33,8.41,9.9,8.6,16.21-.18,6.3-3.5,12.54-8.59,16.28-4.09,3.03-9.29,4.23-14.25,3.91l.05-1h0Z"/>
    <path class="cls-3" d="m352.87,193.72c3.41-6.02,1.86-17.47-2.99-22.39-2.69-2.79-6.51-4.35-10.45-4.34-1.77-.04-4.11.16-5.84.63-5.65,1.52-10.6,5.85-11.82,11.68-.65,2.72-.58,5.66-.28,8.44,1.01,4.88,4.18,9.5,8.84,11.46,3.59,1.68,7.79,1.66,11.79,1.06l.19.98c-4.07.85-8.52,1.03-12.56-.65-5.26-2.06-8.86-7.1-10.1-12.48-.13-.74-.19-2.08-.27-2.83-.78-9.27,4.59-17.28,13.69-19.62,8.95-2.2,18.19.77,21.53,10,1.8,6.02,2.57,12.99-.86,18.58,0,0-.86-.51-.86-.51h0Z"/>
    <polyline class="cls-6" points="222.07 254.94 197.79 255.57 216.83 229.7"/>
    <polyline class="cls-6" points="375.28 230.75 355.68 231.84 371.8 208.52"/>
  </g>
</svg>